<svg width="512" height="512" viewBox="0 0 512 512" fill="none" xmlns="http://www.w3.org/2000/svg">
<rect width="512" height="512" rx="256" fill="#F8D270"/>
<rect x="37" y="190" width="438" height="132" rx="28" fill="url(#paint0_linear_117_783)"/>
<path d="M74.54 255.73C74.54 252.697 75.1 249.733 76.22 246.84C77.3867 243.9 79.0667 241.24 81.26 238.86C83.4533 236.48 86.1133 234.59 89.24 233.19C92.4133 231.743 95.9833 231.02 99.95 231.02C104.71 231.02 108.863 232.023 112.41 234.03C115.957 235.99 118.593 238.603 120.32 241.87L109.89 249.29C109.283 247.657 108.397 246.397 107.23 245.51C106.11 244.623 104.873 244.017 103.52 243.69C102.213 243.317 100.93 243.13 99.67 243.13C97.71 243.13 96.0067 243.527 94.56 244.32C93.16 245.067 91.9933 246.07 91.06 247.33C90.1733 248.59 89.4967 249.99 89.03 251.53C88.61 253.07 88.4 254.61 88.4 256.15C88.4 257.877 88.6567 259.533 89.17 261.12C89.6833 262.707 90.43 264.13 91.41 265.39C92.39 266.603 93.58 267.56 94.98 268.26C96.4267 268.96 98.0367 269.31 99.81 269.31C101.07 269.31 102.353 269.123 103.66 268.75C104.967 268.33 106.157 267.677 107.23 266.79C108.303 265.903 109.12 264.713 109.68 263.22L120.81 269.87C119.83 272.297 118.197 274.373 115.91 276.1C113.623 277.827 111.033 279.157 108.14 280.09C105.247 280.977 102.377 281.42 99.53 281.42C95.8433 281.42 92.46 280.697 89.38 279.25C86.3467 277.757 83.71 275.797 81.47 273.37C79.2767 270.897 77.5733 268.143 76.36 265.11C75.1467 262.03 74.54 258.903 74.54 255.73ZM173.268 243.2H158.988V281H145.338V243.2H130.988V231.3H173.268V243.2ZM187.13 281V231.3H200.78V281H187.13ZM218.517 281V231.3H232.097V249.57H234.897L247.707 231.3H262.687L245.187 255.31L264.297 281H247.777L234.337 261.96H232.097V281H218.517ZM289.945 231.3H305.205L321.025 281H307.165L304.155 271.27H290.925L287.985 281H274.055L289.945 231.3ZM301.985 262.17L297.575 244.67L292.955 262.17H301.985ZM329.263 255.73C329.263 252.697 329.823 249.733 330.943 246.84C332.11 243.9 333.79 241.24 335.983 238.86C338.177 236.48 340.837 234.59 343.963 233.19C347.137 231.743 350.707 231.02 354.673 231.02C359.433 231.02 363.587 232.023 367.133 234.03C370.68 235.99 373.317 238.603 375.043 241.87L364.613 249.29C364.007 247.657 363.12 246.397 361.953 245.51C360.833 244.623 359.597 244.017 358.243 243.69C356.937 243.317 355.653 243.13 354.393 243.13C352.433 243.13 350.73 243.527 349.283 244.32C347.883 245.067 346.717 246.07 345.783 247.33C344.897 248.59 344.22 249.99 343.753 251.53C343.333 253.07 343.123 254.61 343.123 256.15C343.123 257.877 343.38 259.533 343.893 261.12C344.407 262.707 345.153 264.13 346.133 265.39C347.113 266.603 348.303 267.56 349.703 268.26C351.15 268.96 352.76 269.31 354.533 269.31C355.793 269.31 357.077 269.123 358.383 268.75C359.69 268.33 360.88 267.677 361.953 266.79C363.027 265.903 363.843 264.713 364.403 263.22L375.533 269.87C374.553 272.297 372.92 274.373 370.633 276.1C368.347 277.827 365.757 279.157 362.863 280.09C359.97 280.977 357.1 281.42 354.253 281.42C350.567 281.42 347.183 280.697 344.103 279.25C341.07 277.757 338.433 275.797 336.193 273.37C334 270.897 332.297 268.143 331.083 265.11C329.87 262.03 329.263 258.903 329.263 255.73ZM389.562 281V231.3H403.212V261.54L421.552 231.3H434.292V281H420.642V250.76L402.512 281H389.562Z" fill="#F8D270"/>
<defs>
<linearGradient id="paint0_linear_117_783" x1="8.57212" y1="204.426" x2="520.096" y2="359.338" gradientUnits="userSpaceOnUse">
<stop stop-color="#242424"/>
<stop offset="1" stop-color="#3C3C3C"/>
</linearGradient>
</defs>
</svg>
