<svg width="120" height="36" viewBox="0 0 120 36" fill="none" xmlns="http://www.w3.org/2000/svg">
<rect width="119.455" height="36" rx="9" fill="url(#paint0_linear_8_1213)"/>
<path d="M12.5855 18.539C12.5855 17.759 12.7295 16.997 13.0175 16.253C13.3175 15.497 13.7495 14.813 14.3135 14.201C14.8775 13.589 15.5615 13.103 16.3655 12.743C17.1815 12.371 18.0995 12.185 19.1195 12.185C20.3435 12.185 21.4115 12.443 22.3235 12.959C23.2355 13.463 23.9135 14.135 24.3575 14.975L21.6755 16.883C21.5195 16.463 21.2915 16.139 20.9915 15.911C20.7035 15.683 20.3855 15.527 20.0375 15.443C19.7015 15.347 19.3715 15.299 19.0475 15.299C18.5435 15.299 18.1055 15.401 17.7335 15.605C17.3735 15.797 17.0735 16.055 16.8335 16.379C16.6055 16.703 16.4315 17.063 16.3115 17.459C16.2035 17.855 16.1495 18.251 16.1495 18.647C16.1495 19.091 16.2155 19.517 16.3475 19.925C16.4795 20.333 16.6715 20.699 16.9235 21.023C17.1755 21.335 17.4815 21.581 17.8415 21.761C18.2135 21.941 18.6275 22.031 19.0835 22.031C19.4075 22.031 19.7375 21.983 20.0735 21.887C20.4095 21.779 20.7155 21.611 20.9915 21.383C21.2675 21.155 21.4775 20.849 21.6215 20.465L24.4835 22.175C24.2315 22.799 23.8115 23.333 23.2235 23.777C22.6355 24.221 21.9695 24.563 21.2255 24.803C20.4815 25.031 19.7435 25.145 19.0115 25.145C18.0635 25.145 17.1935 24.959 16.4015 24.587C15.6215 24.203 14.9435 23.699 14.3675 23.075C13.8035 22.439 13.3655 21.731 13.0535 20.951C12.7415 20.159 12.5855 19.355 12.5855 18.539ZM37.9728 15.317H34.3008V25.037H30.7908V15.317H27.1008V12.257H37.9728V15.317ZM41.5372 25.037V12.257H45.0472V25.037H41.5372ZM49.6081 25.037V12.257H53.1001V16.955H53.8201L57.1141 12.257H60.9661L56.4661 18.431L61.3801 25.037H57.1321L53.6761 20.141H53.1001V25.037H49.6081ZM67.9753 12.257H71.8993L75.9673 25.037H72.4033L71.6293 22.535H68.2273L67.4713 25.037H63.8893L67.9753 12.257ZM71.0713 20.195L69.9373 15.695L68.7493 20.195H71.0713ZM78.0858 18.539C78.0858 17.759 78.2298 16.997 78.5178 16.253C78.8178 15.497 79.2498 14.813 79.8138 14.201C80.3778 13.589 81.0618 13.103 81.8658 12.743C82.6818 12.371 83.5998 12.185 84.6198 12.185C85.8438 12.185 86.9118 12.443 87.8238 12.959C88.7358 13.463 89.4138 14.135 89.8578 14.975L87.1758 16.883C87.0198 16.463 86.7918 16.139 86.4918 15.911C86.2038 15.683 85.8858 15.527 85.5378 15.443C85.2018 15.347 84.8718 15.299 84.5478 15.299C84.0438 15.299 83.6058 15.401 83.2338 15.605C82.8738 15.797 82.5738 16.055 82.3338 16.379C82.1058 16.703 81.9318 17.063 81.8118 17.459C81.7038 17.855 81.6498 18.251 81.6498 18.647C81.6498 19.091 81.7158 19.517 81.8478 19.925C81.9798 20.333 82.1718 20.699 82.4238 21.023C82.6758 21.335 82.9818 21.581 83.3418 21.761C83.7138 21.941 84.1278 22.031 84.5838 22.031C84.9078 22.031 85.2378 21.983 85.5738 21.887C85.9098 21.779 86.2158 21.611 86.4918 21.383C86.7678 21.155 86.9778 20.849 87.1218 20.465L89.9838 22.175C89.7318 22.799 89.3118 23.333 88.7238 23.777C88.1358 24.221 87.4698 24.563 86.7258 24.803C85.9818 25.031 85.2438 25.145 84.5118 25.145C83.5638 25.145 82.6938 24.959 81.9018 24.587C81.1218 24.203 80.4438 23.699 79.8678 23.075C79.3038 22.439 78.8658 21.731 78.5538 20.951C78.2418 20.159 78.0858 19.355 78.0858 18.539ZM93.5911 25.037V12.257H97.1011V20.033L101.817 12.257H105.093V25.037H101.583V17.261L96.9211 25.037H93.5911Z" fill="white"/>
<defs>
<linearGradient id="paint0_linear_8_1213" x1="-7.75306" y1="3.93443" x2="131.753" y2="46.1832" gradientUnits="userSpaceOnUse">
<stop stop-color="#242424"/>
<stop offset="1" stop-color="#3C3C3C"/>
</linearGradient>
</defs>
</svg>
