<svg width="462" height="252" viewBox="0 0 462 252" fill="none" xmlns="http://www.w3.org/2000/svg">
<g filter="url(#filter0_d_92_182)">
<rect x="20" y="15" width="422" height="212" rx="28" fill="white"/>
</g>
<path d="M110.336 85.368V87.384H105.104V102H102.776V87.384H97.5442V85.368H110.336ZM115.796 100.392C116.324 100.392 116.788 100.384 117.188 100.368C117.604 100.336 117.948 100.288 118.22 100.224V96.504C118.06 96.424 117.796 96.36 117.428 96.312C117.076 96.248 116.644 96.216 116.132 96.216C115.796 96.216 115.436 96.24 115.052 96.288C114.684 96.336 114.34 96.44 114.02 96.6C113.716 96.744 113.46 96.952 113.252 97.224C113.044 97.48 112.94 97.824 112.94 98.256C112.94 99.056 113.196 99.616 113.708 99.936C114.22 100.24 114.916 100.392 115.796 100.392ZM115.604 89.208C116.5 89.208 117.252 89.328 117.86 89.568C118.484 89.792 118.98 90.12 119.348 90.552C119.732 90.968 120.004 91.472 120.164 92.064C120.324 92.64 120.404 93.28 120.404 93.984V101.784C120.212 101.816 119.94 101.864 119.588 101.928C119.252 101.976 118.868 102.024 118.436 102.072C118.004 102.12 117.532 102.16 117.02 102.192C116.524 102.24 116.028 102.264 115.532 102.264C114.828 102.264 114.18 102.192 113.588 102.048C112.996 101.904 112.484 101.68 112.052 101.376C111.62 101.056 111.284 100.64 111.044 100.128C110.804 99.616 110.684 99 110.684 98.28C110.684 97.592 110.82 97 111.092 96.504C111.38 96.008 111.764 95.608 112.244 95.304C112.724 95 113.284 94.776 113.924 94.632C114.564 94.488 115.236 94.416 115.94 94.416C116.164 94.416 116.396 94.432 116.636 94.464C116.876 94.48 117.1 94.512 117.308 94.56C117.532 94.592 117.724 94.624 117.884 94.656C118.044 94.688 118.156 94.712 118.22 94.728V94.104C118.22 93.736 118.18 93.376 118.1 93.024C118.02 92.656 117.876 92.336 117.668 92.064C117.46 91.776 117.172 91.552 116.804 91.392C116.452 91.216 115.988 91.128 115.412 91.128C114.676 91.128 114.028 91.184 113.468 91.296C112.924 91.392 112.516 91.496 112.244 91.608L111.98 89.76C112.268 89.632 112.748 89.512 113.42 89.4C114.092 89.272 114.82 89.208 115.604 89.208ZM128.671 95.208C129.167 95.56 129.703 96.008 130.279 96.552C130.855 97.08 131.415 97.656 131.959 98.28C132.519 98.904 133.039 99.544 133.519 100.2C133.999 100.84 134.407 101.44 134.743 102H132.103C131.751 101.456 131.335 100.904 130.855 100.344C130.391 99.768 129.903 99.216 129.391 98.688C128.879 98.16 128.359 97.672 127.831 97.224C127.303 96.776 126.807 96.4 126.343 96.096V102H124.111V89.52H126.343V94.872C126.727 94.504 127.167 94.08 127.663 93.6C128.159 93.104 128.655 92.608 129.151 92.112C129.663 91.6 130.135 91.12 130.567 90.672C130.999 90.208 131.351 89.824 131.623 89.52H134.215C133.863 89.904 133.447 90.344 132.967 90.84C132.503 91.32 132.015 91.816 131.503 92.328C131.007 92.84 130.511 93.352 130.015 93.864C129.519 94.36 129.071 94.808 128.671 95.208ZM139.354 99.264C139.37 99.392 139.378 99.52 139.378 99.648C139.378 99.76 139.378 99.88 139.378 100.008C139.378 101.016 139.226 102.008 138.922 102.984C138.634 103.976 138.234 104.92 137.722 105.816L135.994 105.264C136.394 104.448 136.658 103.616 136.786 102.768C136.914 101.936 136.978 101.152 136.978 100.416C136.978 100.208 136.97 100.008 136.954 99.816C136.954 99.624 136.946 99.44 136.93 99.264H139.354ZM158.495 102H156.263V91.392H150.695V102H148.463V89.52H158.495V102ZM161.642 95.784C161.642 94.68 161.802 93.72 162.122 92.904C162.442 92.072 162.866 91.384 163.394 90.84C163.922 90.296 164.53 89.888 165.218 89.616C165.906 89.344 166.61 89.208 167.33 89.208C169.01 89.208 170.298 89.736 171.194 90.792C172.09 91.832 172.538 93.424 172.538 95.568C172.538 95.664 172.538 95.792 172.538 95.952C172.538 96.096 172.53 96.232 172.514 96.36H163.97C164.066 97.656 164.442 98.64 165.098 99.312C165.754 99.984 166.778 100.32 168.17 100.32C168.954 100.32 169.61 100.256 170.138 100.128C170.682 99.984 171.09 99.848 171.362 99.72L171.674 101.592C171.402 101.736 170.922 101.888 170.234 102.048C169.562 102.208 168.794 102.288 167.93 102.288C166.842 102.288 165.898 102.128 165.098 101.808C164.314 101.472 163.666 101.016 163.154 100.44C162.642 99.864 162.258 99.184 162.002 98.4C161.762 97.6 161.642 96.728 161.642 95.784ZM170.21 94.56C170.226 93.552 169.97 92.728 169.442 92.088C168.93 91.432 168.218 91.104 167.306 91.104C166.794 91.104 166.338 91.208 165.938 91.416C165.554 91.608 165.226 91.864 164.954 92.184C164.682 92.504 164.466 92.872 164.306 93.288C164.162 93.704 164.066 94.128 164.018 94.56H170.21ZM184.408 95.784C184.408 94.328 184.048 93.208 183.328 92.424C182.608 91.64 181.648 91.248 180.448 91.248C179.776 91.248 179.248 91.272 178.864 91.32C178.496 91.368 178.2 91.424 177.976 91.488V99.36C178.248 99.584 178.64 99.8 179.152 100.008C179.664 100.216 180.224 100.32 180.832 100.32C181.472 100.32 182.016 100.208 182.464 99.984C182.928 99.744 183.304 99.424 183.592 99.024C183.88 98.608 184.088 98.128 184.216 97.584C184.344 97.024 184.408 96.424 184.408 95.784ZM186.736 95.784C186.736 96.728 186.608 97.6 186.352 98.4C186.112 99.2 185.752 99.888 185.272 100.464C184.792 101.04 184.2 101.488 183.496 101.808C182.808 102.128 182.016 102.288 181.12 102.288C180.4 102.288 179.76 102.192 179.2 102C178.656 101.808 178.248 101.624 177.976 101.448V106.44H175.744V89.904C176.272 89.776 176.928 89.64 177.712 89.496C178.512 89.336 179.432 89.256 180.472 89.256C181.432 89.256 182.296 89.408 183.064 89.712C183.832 90.016 184.488 90.448 185.032 91.008C185.576 91.568 185.992 92.256 186.28 93.072C186.584 93.872 186.736 94.776 186.736 95.784ZM189.877 102V89.52H192.109V100.152H196.717V89.52H198.949V100.152H203.557V89.52H205.789V102H189.877ZM208.939 95.784C208.939 94.68 209.099 93.72 209.419 92.904C209.739 92.072 210.163 91.384 210.691 90.84C211.219 90.296 211.827 89.888 212.515 89.616C213.203 89.344 213.907 89.208 214.627 89.208C216.307 89.208 217.595 89.736 218.491 90.792C219.387 91.832 219.835 93.424 219.835 95.568C219.835 95.664 219.835 95.792 219.835 95.952C219.835 96.096 219.827 96.232 219.811 96.36H211.267C211.363 97.656 211.739 98.64 212.395 99.312C213.051 99.984 214.075 100.32 215.467 100.32C216.251 100.32 216.907 100.256 217.435 100.128C217.979 99.984 218.387 99.848 218.659 99.72L218.971 101.592C218.699 101.736 218.219 101.888 217.531 102.048C216.859 102.208 216.091 102.288 215.227 102.288C214.139 102.288 213.195 102.128 212.395 101.808C211.611 101.472 210.963 101.016 210.451 100.44C209.939 99.864 209.555 99.184 209.299 98.4C209.059 97.6 208.939 96.728 208.939 95.784ZM217.507 94.56C217.523 93.552 217.267 92.728 216.739 92.088C216.227 91.432 215.515 91.104 214.603 91.104C214.091 91.104 213.635 91.208 213.235 91.416C212.851 91.608 212.523 91.864 212.251 92.184C211.979 92.504 211.763 92.872 211.603 93.288C211.459 93.704 211.363 94.128 211.315 94.56H217.507ZM231.764 89.208C232.484 89.208 233.156 89.28 233.78 89.424C234.404 89.568 234.94 89.784 235.388 90.072C235.836 90.36 236.188 90.72 236.444 91.152C236.7 91.584 236.828 92.088 236.828 92.664C236.828 93.032 236.764 93.368 236.636 93.672C236.508 93.976 236.348 94.248 236.156 94.488C235.964 94.728 235.748 94.936 235.508 95.112C235.284 95.272 235.068 95.384 234.86 95.448C235.596 95.672 236.172 96.072 236.588 96.648C237.02 97.208 237.236 97.92 237.236 98.784C237.236 99.968 236.756 100.848 235.796 101.424C234.836 102 233.532 102.288 231.884 102.288C230.876 102.288 230.004 102.208 229.268 102.048C228.548 101.888 228.036 101.736 227.732 101.592L228.116 99.696C228.372 99.792 228.828 99.928 229.484 100.104C230.156 100.264 230.956 100.344 231.884 100.344C232.892 100.344 233.66 100.192 234.188 99.888C234.716 99.568 234.98 99.096 234.98 98.472C234.98 98.024 234.876 97.664 234.668 97.392C234.476 97.104 234.228 96.888 233.924 96.744C233.62 96.6 233.292 96.504 232.94 96.456C232.588 96.408 232.26 96.384 231.956 96.384H229.868V94.608H231.884C232.172 94.608 232.468 94.592 232.772 94.56C233.092 94.512 233.38 94.424 233.636 94.296C233.908 94.168 234.132 93.992 234.308 93.768C234.484 93.528 234.572 93.216 234.572 92.832C234.572 92.528 234.492 92.272 234.332 92.064C234.188 91.84 233.988 91.656 233.732 91.512C233.476 91.368 233.172 91.264 232.82 91.2C232.484 91.12 232.132 91.08 231.764 91.08C231.476 91.08 231.164 91.104 230.828 91.152C230.492 91.2 230.164 91.264 229.844 91.344C229.524 91.408 229.236 91.48 228.98 91.56C228.724 91.64 228.54 91.712 228.428 91.776L228.02 89.856C228.148 89.808 228.348 89.744 228.62 89.664C228.892 89.584 229.196 89.512 229.532 89.448C229.884 89.384 230.252 89.328 230.636 89.28C231.02 89.232 231.396 89.208 231.764 89.208ZM244.562 100.392C245.09 100.392 245.554 100.384 245.954 100.368C246.37 100.336 246.714 100.288 246.986 100.224V96.504C246.826 96.424 246.562 96.36 246.194 96.312C245.842 96.248 245.41 96.216 244.898 96.216C244.562 96.216 244.202 96.24 243.818 96.288C243.45 96.336 243.106 96.44 242.786 96.6C242.482 96.744 242.226 96.952 242.018 97.224C241.81 97.48 241.706 97.824 241.706 98.256C241.706 99.056 241.962 99.616 242.474 99.936C242.986 100.24 243.682 100.392 244.562 100.392ZM244.37 89.208C245.266 89.208 246.018 89.328 246.626 89.568C247.25 89.792 247.746 90.12 248.114 90.552C248.498 90.968 248.77 91.472 248.93 92.064C249.09 92.64 249.17 93.28 249.17 93.984V101.784C248.978 101.816 248.706 101.864 248.354 101.928C248.018 101.976 247.634 102.024 247.202 102.072C246.77 102.12 246.298 102.16 245.786 102.192C245.29 102.24 244.794 102.264 244.298 102.264C243.594 102.264 242.946 102.192 242.354 102.048C241.762 101.904 241.25 101.68 240.818 101.376C240.386 101.056 240.05 100.64 239.81 100.128C239.57 99.616 239.45 99 239.45 98.28C239.45 97.592 239.586 97 239.858 96.504C240.146 96.008 240.53 95.608 241.01 95.304C241.49 95 242.05 94.776 242.69 94.632C243.33 94.488 244.002 94.416 244.706 94.416C244.93 94.416 245.162 94.432 245.402 94.464C245.642 94.48 245.866 94.512 246.074 94.56C246.298 94.592 246.49 94.624 246.65 94.656C246.81 94.688 246.922 94.712 246.986 94.728V94.104C246.986 93.736 246.946 93.376 246.866 93.024C246.786 92.656 246.642 92.336 246.434 92.064C246.226 91.776 245.938 91.552 245.57 91.392C245.218 91.216 244.754 91.128 244.178 91.128C243.442 91.128 242.794 91.184 242.234 91.296C241.69 91.392 241.282 91.496 241.01 91.608L240.746 89.76C241.034 89.632 241.514 89.512 242.186 89.4C242.858 89.272 243.586 89.208 244.37 89.208ZM255.253 92.808C255.093 94.392 254.973 95.976 254.893 97.56C254.813 99.128 254.749 100.608 254.701 102H252.565C252.597 101.024 252.645 100.008 252.709 98.952C252.773 97.88 252.845 96.808 252.925 95.736C253.005 94.648 253.093 93.584 253.189 92.544C253.285 91.488 253.389 90.48 253.501 89.52H255.541C256.053 90.352 256.653 91.496 257.341 92.952C258.029 94.392 258.821 96.056 259.717 97.944C260.613 96.056 261.405 94.392 262.093 92.952C262.781 91.496 263.381 90.352 263.893 89.52H265.957C266.069 90.48 266.173 91.488 266.269 92.544C266.365 93.584 266.453 94.648 266.533 95.736C266.613 96.808 266.685 97.88 266.749 98.952C266.813 100.008 266.861 101.024 266.893 102H264.685C264.637 100.608 264.573 99.128 264.493 97.56C264.413 95.976 264.293 94.392 264.133 92.808C263.877 93.304 263.581 93.904 263.245 94.608C262.909 95.296 262.573 96 262.237 96.72C261.917 97.44 261.613 98.128 261.325 98.784C261.037 99.44 260.813 99.96 260.653 100.344H258.781C258.605 99.944 258.365 99.416 258.061 98.76C257.773 98.104 257.461 97.416 257.125 96.696C256.805 95.96 256.477 95.248 256.141 94.56C255.805 93.856 255.509 93.272 255.253 92.808ZM281.448 95.76C281.448 96.752 281.304 97.648 281.016 98.448C280.728 99.248 280.32 99.936 279.792 100.512C279.28 101.088 278.664 101.536 277.944 101.856C277.224 102.16 276.44 102.312 275.592 102.312C274.744 102.312 273.96 102.16 273.24 101.856C272.52 101.536 271.896 101.088 271.368 100.512C270.856 99.936 270.456 99.248 270.168 98.448C269.88 97.648 269.736 96.752 269.736 95.76C269.736 94.784 269.88 93.896 270.168 93.096C270.456 92.28 270.856 91.584 271.368 91.008C271.896 90.432 272.52 89.992 273.24 89.688C273.96 89.368 274.744 89.208 275.592 89.208C276.44 89.208 277.224 89.368 277.944 89.688C278.664 89.992 279.28 90.432 279.792 91.008C280.32 91.584 280.728 92.28 281.016 93.096C281.304 93.896 281.448 94.784 281.448 95.76ZM279.12 95.76C279.12 94.352 278.8 93.24 278.16 92.424C277.536 91.592 276.68 91.176 275.592 91.176C274.504 91.176 273.64 91.592 273 92.424C272.376 93.24 272.064 94.352 272.064 95.76C272.064 97.168 272.376 98.288 273 99.12C273.64 99.936 274.504 100.344 275.592 100.344C276.68 100.344 277.536 99.936 278.16 99.12C278.8 98.288 279.12 97.168 279.12 95.76ZM286.772 100.32C286.868 100.336 287.004 100.352 287.18 100.368C287.356 100.384 287.556 100.4 287.78 100.416C288.004 100.416 288.236 100.424 288.476 100.44C288.732 100.44 288.972 100.44 289.196 100.44C289.66 100.44 290.1 100.408 290.516 100.344C290.948 100.28 291.316 100.168 291.62 100.008C291.94 99.848 292.188 99.64 292.364 99.384C292.556 99.112 292.652 98.768 292.652 98.352C292.652 97.952 292.564 97.624 292.388 97.368C292.228 97.096 292.004 96.88 291.716 96.72C291.428 96.56 291.084 96.448 290.684 96.384C290.3 96.32 289.884 96.288 289.436 96.288H286.772V100.32ZM289.148 94.632C289.58 94.632 289.972 94.608 290.324 94.56C290.692 94.496 291.004 94.392 291.26 94.248C291.532 94.104 291.74 93.912 291.884 93.672C292.044 93.432 292.124 93.128 292.124 92.76C292.124 92.376 292.028 92.072 291.836 91.848C291.644 91.624 291.388 91.456 291.068 91.344C290.764 91.216 290.412 91.136 290.012 91.104C289.628 91.056 289.236 91.032 288.836 91.032C288.468 91.032 288.092 91.04 287.708 91.056C287.34 91.072 287.028 91.088 286.772 91.104V94.632H289.148ZM289.1 102.216C288.156 102.216 287.284 102.168 286.484 102.072C285.684 101.992 285.052 101.896 284.588 101.784V89.64C285.052 89.528 285.684 89.432 286.484 89.352C287.284 89.256 288.156 89.208 289.1 89.208C289.756 89.208 290.396 89.264 291.02 89.376C291.644 89.488 292.196 89.68 292.676 89.952C293.156 90.208 293.54 90.568 293.828 91.032C294.132 91.48 294.284 92.04 294.284 92.712C294.284 93.32 294.132 93.84 293.828 94.272C293.524 94.704 293.116 95.04 292.604 95.28C293.292 95.52 293.836 95.88 294.236 96.36C294.652 96.824 294.86 97.48 294.86 98.328C294.86 99.08 294.708 99.704 294.404 100.2C294.116 100.696 293.708 101.096 293.18 101.4C292.668 101.704 292.06 101.912 291.356 102.024C290.652 102.152 289.9 102.216 289.1 102.216ZM302.08 91.392C302.08 91.92 302.064 92.488 302.032 93.096C302.016 93.688 301.976 94.288 301.912 94.896C301.848 95.488 301.76 96.08 301.648 96.672C301.536 97.248 301.392 97.792 301.216 98.304C301.04 98.816 300.816 99.296 300.544 99.744C300.288 100.192 299.968 100.592 299.584 100.944C299.2 101.28 298.752 101.568 298.24 101.808C297.728 102.032 297.128 102.176 296.44 102.24L296.128 100.368C296.912 100.208 297.528 99.912 297.976 99.48C298.44 99.048 298.808 98.52 299.08 97.896C299.32 97.352 299.496 96.736 299.608 96.048C299.72 95.36 299.8 94.648 299.848 93.912C299.896 93.16 299.92 92.408 299.92 91.656C299.936 90.904 299.944 90.192 299.944 89.52H308.248V102H306.016V91.392H302.08ZM311.384 95.784C311.384 94.68 311.544 93.72 311.864 92.904C312.184 92.072 312.608 91.384 313.136 90.84C313.664 90.296 314.272 89.888 314.96 89.616C315.648 89.344 316.352 89.208 317.072 89.208C318.752 89.208 320.04 89.736 320.936 90.792C321.832 91.832 322.28 93.424 322.28 95.568C322.28 95.664 322.28 95.792 322.28 95.952C322.28 96.096 322.272 96.232 322.256 96.36H313.712C313.808 97.656 314.184 98.64 314.84 99.312C315.496 99.984 316.52 100.32 317.912 100.32C318.696 100.32 319.352 100.256 319.88 100.128C320.424 99.984 320.832 99.848 321.104 99.72L321.416 101.592C321.144 101.736 320.664 101.888 319.976 102.048C319.304 102.208 318.536 102.288 317.672 102.288C316.584 102.288 315.64 102.128 314.84 101.808C314.056 101.472 313.408 101.016 312.896 100.44C312.384 99.864 312 99.184 311.744 98.4C311.504 97.6 311.384 96.728 311.384 95.784ZM319.952 94.56C319.968 93.552 319.712 92.728 319.184 92.088C318.672 91.432 317.96 91.104 317.048 91.104C316.536 91.104 316.08 91.208 315.68 91.416C315.296 91.608 314.968 91.864 314.696 92.184C314.424 92.504 314.208 92.872 314.048 93.288C313.904 93.704 313.808 94.128 313.76 94.56H319.952ZM335.71 102H333.478V96.48H327.718V102H325.486V89.52H327.718V94.608H333.478V89.52H335.71V102ZM349.773 102H347.541V96.48H341.781V102H339.549V89.52H341.781V94.608H347.541V89.52H349.773V102ZM358.771 97.152C358.531 97.152 358.299 97.152 358.075 97.152C357.851 97.136 357.635 97.12 357.427 97.104C356.915 97.872 356.419 98.696 355.939 99.576C355.475 100.44 355.059 101.248 354.691 102H352.435C352.627 101.536 352.851 101.064 353.107 100.584C353.363 100.088 353.619 99.608 353.875 99.144C354.147 98.68 354.419 98.24 354.691 97.824C354.963 97.408 355.219 97.032 355.459 96.696C355.011 96.536 354.643 96.344 354.355 96.12C354.067 95.88 353.835 95.616 353.659 95.328C353.483 95.04 353.355 94.736 353.275 94.416C353.211 94.08 353.179 93.744 353.179 93.408C353.179 92.704 353.307 92.088 353.563 91.56C353.835 91.032 354.203 90.6 354.667 90.264C355.131 89.912 355.675 89.648 356.299 89.472C356.939 89.296 357.635 89.208 358.387 89.208C359.443 89.208 360.339 89.256 361.075 89.352C361.811 89.448 362.427 89.56 362.923 89.688V102H360.715V97.152H358.771ZM360.715 91.176C360.539 91.144 360.243 91.112 359.827 91.08C359.427 91.048 358.963 91.032 358.435 91.032C357.523 91.032 356.787 91.224 356.227 91.608C355.667 91.976 355.387 92.568 355.387 93.384C355.387 94.184 355.675 94.736 356.251 95.04C356.827 95.344 357.571 95.496 358.483 95.496H360.715V91.176ZM122.636 130H120.404V119.392H114.836V130H112.604V117.52H122.636V130ZM135.143 123.784C135.143 122.328 134.783 121.208 134.063 120.424C133.343 119.64 132.383 119.248 131.183 119.248C130.511 119.248 129.983 119.272 129.599 119.32C129.231 119.368 128.935 119.424 128.711 119.488V127.36C128.983 127.584 129.375 127.8 129.887 128.008C130.399 128.216 130.959 128.32 131.567 128.32C132.207 128.32 132.751 128.208 133.199 127.984C133.663 127.744 134.039 127.424 134.327 127.024C134.615 126.608 134.823 126.128 134.951 125.584C135.079 125.024 135.143 124.424 135.143 123.784ZM137.471 123.784C137.471 124.728 137.343 125.6 137.087 126.4C136.847 127.2 136.487 127.888 136.007 128.464C135.527 129.04 134.935 129.488 134.231 129.808C133.543 130.128 132.751 130.288 131.855 130.288C131.135 130.288 130.495 130.192 129.935 130C129.391 129.808 128.983 129.624 128.711 129.448V134.44H126.479V117.904C127.007 117.776 127.663 117.64 128.447 117.496C129.247 117.336 130.167 117.256 131.207 117.256C132.167 117.256 133.031 117.408 133.799 117.712C134.567 118.016 135.223 118.448 135.767 119.008C136.311 119.568 136.727 120.256 137.015 121.072C137.319 121.872 137.471 122.776 137.471 123.784ZM151.099 117.52V130H148.939V120.496C148.459 121.104 147.931 121.816 147.355 122.632C146.779 123.448 146.203 124.296 145.627 125.176C145.051 126.04 144.499 126.896 143.971 127.744C143.443 128.592 142.987 129.344 142.603 130H140.611V117.52H142.771V126.496C143.187 125.808 143.659 125.056 144.187 124.24C144.715 123.408 145.259 122.592 145.819 121.792C146.395 120.976 146.963 120.2 147.523 119.464C148.099 118.712 148.635 118.064 149.131 117.52H151.099ZM165.42 117.52V130H163.26V120.496C162.78 121.104 162.252 121.816 161.676 122.632C161.1 123.448 160.524 124.296 159.948 125.176C159.372 126.04 158.82 126.896 158.292 127.744C157.764 128.592 157.308 129.344 156.924 130H154.932V117.52H157.092V126.496C157.508 125.808 157.98 125.056 158.508 124.24C159.036 123.408 159.58 122.592 160.14 121.792C160.716 120.976 161.284 120.2 161.844 119.464C162.42 118.712 162.956 118.064 163.452 117.52H165.42ZM160.188 115.504C159.18 115.504 158.356 115.248 157.716 114.736C157.092 114.224 156.716 113.512 156.588 112.6L158.292 112.144C158.42 112.656 158.636 113.072 158.94 113.392C159.244 113.712 159.66 113.872 160.188 113.872C160.716 113.872 161.132 113.712 161.436 113.392C161.74 113.072 161.956 112.656 162.084 112.144L163.764 112.6C163.636 113.512 163.26 114.224 162.636 114.736C162.012 115.248 161.196 115.504 160.188 115.504ZM169.252 130V117.52H171.484V128.152H176.092V117.52H178.324V128.152H182.932V117.52H185.164V130H169.252ZM193.354 119.392C193.354 119.92 193.338 120.488 193.306 121.096C193.29 121.688 193.25 122.288 193.186 122.896C193.122 123.488 193.034 124.08 192.922 124.672C192.81 125.248 192.666 125.792 192.49 126.304C192.314 126.816 192.09 127.296 191.818 127.744C191.562 128.192 191.242 128.592 190.858 128.944C190.474 129.28 190.026 129.568 189.514 129.808C189.002 130.032 188.402 130.176 187.714 130.24L187.402 128.368C188.186 128.208 188.802 127.912 189.25 127.48C189.714 127.048 190.082 126.52 190.354 125.896C190.594 125.352 190.77 124.736 190.882 124.048C190.994 123.36 191.074 122.648 191.122 121.912C191.17 121.16 191.194 120.408 191.194 119.656C191.21 118.904 191.218 118.192 191.218 117.52H199.522V130H197.29V119.392H193.354ZM214.37 123.76C214.37 124.752 214.226 125.648 213.938 126.448C213.65 127.248 213.242 127.936 212.714 128.512C212.202 129.088 211.586 129.536 210.866 129.856C210.146 130.16 209.362 130.312 208.514 130.312C207.666 130.312 206.882 130.16 206.162 129.856C205.442 129.536 204.818 129.088 204.29 128.512C203.778 127.936 203.378 127.248 203.09 126.448C202.802 125.648 202.658 124.752 202.658 123.76C202.658 122.784 202.802 121.896 203.09 121.096C203.378 120.28 203.778 119.584 204.29 119.008C204.818 118.432 205.442 117.992 206.162 117.688C206.882 117.368 207.666 117.208 208.514 117.208C209.362 117.208 210.146 117.368 210.866 117.688C211.586 117.992 212.202 118.432 212.714 119.008C213.242 119.584 213.65 120.28 213.938 121.096C214.226 121.896 214.37 122.784 214.37 123.76ZM212.042 123.76C212.042 122.352 211.722 121.24 211.082 120.424C210.458 119.592 209.602 119.176 208.514 119.176C207.426 119.176 206.562 119.592 205.922 120.424C205.298 121.24 204.986 122.352 204.986 123.76C204.986 125.168 205.298 126.288 205.922 127.12C206.562 127.936 207.426 128.344 208.514 128.344C209.602 128.344 210.458 127.936 211.082 127.12C211.722 126.288 212.042 125.168 212.042 123.76ZM219.393 127.264C219.409 127.392 219.417 127.52 219.417 127.648C219.417 127.76 219.417 127.88 219.417 128.008C219.417 129.016 219.265 130.008 218.961 130.984C218.673 131.976 218.273 132.92 217.761 133.816L216.033 133.264C216.433 132.448 216.697 131.616 216.825 130.768C216.953 129.936 217.017 129.152 217.017 128.416C217.017 128.208 217.009 128.008 216.993 127.816C216.993 127.624 216.985 127.44 216.969 127.264H219.393ZM231.67 117.208C232.39 117.208 233.062 117.28 233.686 117.424C234.31 117.568 234.846 117.784 235.294 118.072C235.742 118.36 236.094 118.72 236.35 119.152C236.606 119.584 236.734 120.088 236.734 120.664C236.734 121.032 236.67 121.368 236.542 121.672C236.414 121.976 236.254 122.248 236.062 122.488C235.87 122.728 235.654 122.936 235.414 123.112C235.19 123.272 234.974 123.384 234.766 123.448C235.502 123.672 236.078 124.072 236.494 124.648C236.926 125.208 237.142 125.92 237.142 126.784C237.142 127.968 236.662 128.848 235.702 129.424C234.742 130 233.438 130.288 231.79 130.288C230.782 130.288 229.91 130.208 229.174 130.048C228.454 129.888 227.942 129.736 227.638 129.592L228.022 127.696C228.278 127.792 228.734 127.928 229.39 128.104C230.062 128.264 230.862 128.344 231.79 128.344C232.798 128.344 233.566 128.192 234.094 127.888C234.622 127.568 234.886 127.096 234.886 126.472C234.886 126.024 234.782 125.664 234.574 125.392C234.382 125.104 234.134 124.888 233.83 124.744C233.526 124.6 233.198 124.504 232.846 124.456C232.494 124.408 232.166 124.384 231.862 124.384H229.774V122.608H231.79C232.078 122.608 232.374 122.592 232.678 122.56C232.998 122.512 233.286 122.424 233.542 122.296C233.814 122.168 234.038 121.992 234.214 121.768C234.39 121.528 234.478 121.216 234.478 120.832C234.478 120.528 234.398 120.272 234.238 120.064C234.094 119.84 233.894 119.656 233.638 119.512C233.382 119.368 233.078 119.264 232.726 119.2C232.39 119.12 232.038 119.08 231.67 119.08C231.382 119.08 231.07 119.104 230.734 119.152C230.398 119.2 230.07 119.264 229.75 119.344C229.43 119.408 229.142 119.48 228.886 119.56C228.63 119.64 228.446 119.712 228.334 119.776L227.926 117.856C228.054 117.808 228.254 117.744 228.526 117.664C228.798 117.584 229.102 117.512 229.438 117.448C229.79 117.384 230.158 117.328 230.542 117.28C230.926 117.232 231.302 117.208 231.67 117.208ZM244.468 128.392C244.996 128.392 245.46 128.384 245.86 128.368C246.276 128.336 246.62 128.288 246.892 128.224V124.504C246.732 124.424 246.468 124.36 246.1 124.312C245.748 124.248 245.316 124.216 244.804 124.216C244.468 124.216 244.108 124.24 243.724 124.288C243.356 124.336 243.012 124.44 242.692 124.6C242.388 124.744 242.132 124.952 241.924 125.224C241.716 125.48 241.612 125.824 241.612 126.256C241.612 127.056 241.868 127.616 242.38 127.936C242.892 128.24 243.588 128.392 244.468 128.392ZM244.276 117.208C245.172 117.208 245.924 117.328 246.532 117.568C247.156 117.792 247.652 118.12 248.02 118.552C248.404 118.968 248.676 119.472 248.836 120.064C248.996 120.64 249.076 121.28 249.076 121.984V129.784C248.884 129.816 248.612 129.864 248.26 129.928C247.924 129.976 247.54 130.024 247.108 130.072C246.676 130.12 246.204 130.16 245.692 130.192C245.196 130.24 244.7 130.264 244.204 130.264C243.5 130.264 242.852 130.192 242.26 130.048C241.668 129.904 241.156 129.68 240.724 129.376C240.292 129.056 239.956 128.64 239.716 128.128C239.476 127.616 239.356 127 239.356 126.28C239.356 125.592 239.492 125 239.764 124.504C240.052 124.008 240.436 123.608 240.916 123.304C241.396 123 241.956 122.776 242.596 122.632C243.236 122.488 243.908 122.416 244.612 122.416C244.836 122.416 245.068 122.432 245.308 122.464C245.548 122.48 245.772 122.512 245.98 122.56C246.204 122.592 246.396 122.624 246.556 122.656C246.716 122.688 246.828 122.712 246.892 122.728V122.104C246.892 121.736 246.852 121.376 246.772 121.024C246.692 120.656 246.548 120.336 246.34 120.064C246.132 119.776 245.844 119.552 245.476 119.392C245.124 119.216 244.66 119.128 244.084 119.128C243.348 119.128 242.7 119.184 242.14 119.296C241.596 119.392 241.188 119.496 240.916 119.608L240.652 117.76C240.94 117.632 241.42 117.512 242.092 117.4C242.764 117.272 243.492 117.208 244.276 117.208ZM255.159 120.808C254.999 122.392 254.879 123.976 254.799 125.56C254.719 127.128 254.655 128.608 254.607 130H252.471C252.503 129.024 252.551 128.008 252.615 126.952C252.679 125.88 252.751 124.808 252.831 123.736C252.911 122.648 252.999 121.584 253.095 120.544C253.191 119.488 253.295 118.48 253.407 117.52H255.447C255.959 118.352 256.559 119.496 257.247 120.952C257.935 122.392 258.727 124.056 259.623 125.944C260.519 124.056 261.311 122.392 261.999 120.952C262.687 119.496 263.287 118.352 263.799 117.52H265.863C265.975 118.48 266.079 119.488 266.175 120.544C266.271 121.584 266.359 122.648 266.439 123.736C266.519 124.808 266.591 125.88 266.655 126.952C266.719 128.008 266.767 129.024 266.799 130H264.591C264.543 128.608 264.479 127.128 264.399 125.56C264.319 123.976 264.199 122.392 264.039 120.808C263.783 121.304 263.487 121.904 263.151 122.608C262.815 123.296 262.479 124 262.143 124.72C261.823 125.44 261.519 126.128 261.231 126.784C260.943 127.44 260.719 127.96 260.559 128.344H258.687C258.511 127.944 258.271 127.416 257.967 126.76C257.679 126.104 257.367 125.416 257.031 124.696C256.711 123.96 256.383 123.248 256.047 122.56C255.711 121.856 255.415 121.272 255.159 120.808ZM281.354 123.76C281.354 124.752 281.21 125.648 280.922 126.448C280.634 127.248 280.226 127.936 279.698 128.512C279.186 129.088 278.57 129.536 277.85 129.856C277.13 130.16 276.346 130.312 275.498 130.312C274.65 130.312 273.866 130.16 273.146 129.856C272.426 129.536 271.802 129.088 271.274 128.512C270.762 127.936 270.362 127.248 270.074 126.448C269.786 125.648 269.642 124.752 269.642 123.76C269.642 122.784 269.786 121.896 270.074 121.096C270.362 120.28 270.762 119.584 271.274 119.008C271.802 118.432 272.426 117.992 273.146 117.688C273.866 117.368 274.65 117.208 275.498 117.208C276.346 117.208 277.13 117.368 277.85 117.688C278.57 117.992 279.186 118.432 279.698 119.008C280.226 119.584 280.634 120.28 280.922 121.096C281.21 121.896 281.354 122.784 281.354 123.76ZM279.026 123.76C279.026 122.352 278.706 121.24 278.066 120.424C277.442 119.592 276.586 119.176 275.498 119.176C274.41 119.176 273.546 119.592 272.906 120.424C272.282 121.24 271.97 122.352 271.97 123.76C271.97 125.168 272.282 126.288 272.906 127.12C273.546 127.936 274.41 128.344 275.498 128.344C276.586 128.344 277.442 127.936 278.066 127.12C278.706 126.288 279.026 125.168 279.026 123.76ZM286.678 128.32C286.774 128.336 286.91 128.352 287.086 128.368C287.262 128.384 287.462 128.4 287.686 128.416C287.91 128.416 288.142 128.424 288.382 128.44C288.638 128.44 288.878 128.44 289.102 128.44C289.566 128.44 290.006 128.408 290.422 128.344C290.854 128.28 291.222 128.168 291.526 128.008C291.846 127.848 292.094 127.64 292.27 127.384C292.462 127.112 292.558 126.768 292.558 126.352C292.558 125.952 292.47 125.624 292.294 125.368C292.134 125.096 291.91 124.88 291.622 124.72C291.334 124.56 290.99 124.448 290.59 124.384C290.206 124.32 289.79 124.288 289.342 124.288H286.678V128.32ZM289.054 122.632C289.486 122.632 289.878 122.608 290.23 122.56C290.598 122.496 290.91 122.392 291.166 122.248C291.438 122.104 291.646 121.912 291.79 121.672C291.95 121.432 292.03 121.128 292.03 120.76C292.03 120.376 291.934 120.072 291.742 119.848C291.55 119.624 291.294 119.456 290.974 119.344C290.67 119.216 290.318 119.136 289.918 119.104C289.534 119.056 289.142 119.032 288.742 119.032C288.374 119.032 287.998 119.04 287.614 119.056C287.246 119.072 286.934 119.088 286.678 119.104V122.632H289.054ZM289.006 130.216C288.062 130.216 287.19 130.168 286.39 130.072C285.59 129.992 284.958 129.896 284.494 129.784V117.64C284.958 117.528 285.59 117.432 286.39 117.352C287.19 117.256 288.062 117.208 289.006 117.208C289.662 117.208 290.302 117.264 290.926 117.376C291.55 117.488 292.102 117.68 292.582 117.952C293.062 118.208 293.446 118.568 293.734 119.032C294.038 119.48 294.19 120.04 294.19 120.712C294.19 121.32 294.038 121.84 293.734 122.272C293.43 122.704 293.022 123.04 292.51 123.28C293.198 123.52 293.742 123.88 294.142 124.36C294.558 124.824 294.766 125.48 294.766 126.328C294.766 127.08 294.614 127.704 294.31 128.2C294.022 128.696 293.614 129.096 293.086 129.4C292.574 129.704 291.966 129.912 291.262 130.024C290.558 130.152 289.806 130.216 289.006 130.216ZM307.867 130H305.635V124.48H299.875V130H297.643V117.52H299.875V122.608H305.635V117.52H307.867V130ZM322.193 117.52V130H320.033V120.496C319.553 121.104 319.025 121.816 318.449 122.632C317.873 123.448 317.297 124.296 316.721 125.176C316.145 126.04 315.593 126.896 315.065 127.744C314.537 128.592 314.081 129.344 313.697 130H311.705V117.52H313.865V126.496C314.281 125.808 314.753 125.056 315.281 124.24C315.809 123.408 316.353 122.592 316.913 121.792C317.489 120.976 318.057 120.2 318.617 119.464C319.193 118.712 319.729 118.064 320.225 117.52H322.193ZM335.985 128.152H337.665V133.48H335.553V130H326.025V117.52H328.257V128.152H333.753V117.52H335.985V128.152ZM345.248 125.152C345.008 125.152 344.776 125.152 344.552 125.152C344.328 125.136 344.112 125.12 343.904 125.104C343.392 125.872 342.896 126.696 342.416 127.576C341.952 128.44 341.536 129.248 341.168 130H338.912C339.104 129.536 339.328 129.064 339.584 128.584C339.84 128.088 340.096 127.608 340.352 127.144C340.624 126.68 340.896 126.24 341.168 125.824C341.44 125.408 341.696 125.032 341.936 124.696C341.488 124.536 341.12 124.344 340.832 124.12C340.544 123.88 340.312 123.616 340.136 123.328C339.96 123.04 339.832 122.736 339.752 122.416C339.688 122.08 339.656 121.744 339.656 121.408C339.656 120.704 339.784 120.088 340.04 119.56C340.312 119.032 340.68 118.6 341.144 118.264C341.608 117.912 342.152 117.648 342.776 117.472C343.416 117.296 344.112 117.208 344.864 117.208C345.92 117.208 346.816 117.256 347.552 117.352C348.288 117.448 348.904 117.56 349.4 117.688V130H347.192V125.152H345.248ZM347.192 119.176C347.016 119.144 346.72 119.112 346.304 119.08C345.904 119.048 345.44 119.032 344.912 119.032C344 119.032 343.264 119.224 342.704 119.608C342.144 119.976 341.864 120.568 341.864 121.384C341.864 122.184 342.152 122.736 342.728 123.04C343.304 123.344 344.048 123.496 344.96 123.496H347.192V119.176ZM159.19 145.208C159.91 145.208 160.582 145.28 161.206 145.424C161.83 145.568 162.366 145.784 162.814 146.072C163.262 146.36 163.614 146.72 163.87 147.152C164.126 147.584 164.254 148.088 164.254 148.664C164.254 149.032 164.19 149.368 164.062 149.672C163.934 149.976 163.774 150.248 163.582 150.488C163.39 150.728 163.174 150.936 162.934 151.112C162.71 151.272 162.494 151.384 162.286 151.448C163.022 151.672 163.598 152.072 164.014 152.648C164.446 153.208 164.662 153.92 164.662 154.784C164.662 155.968 164.182 156.848 163.222 157.424C162.262 158 160.958 158.288 159.31 158.288C158.302 158.288 157.43 158.208 156.694 158.048C155.974 157.888 155.462 157.736 155.158 157.592L155.542 155.696C155.798 155.792 156.254 155.928 156.91 156.104C157.582 156.264 158.382 156.344 159.31 156.344C160.318 156.344 161.086 156.192 161.614 155.888C162.142 155.568 162.406 155.096 162.406 154.472C162.406 154.024 162.302 153.664 162.094 153.392C161.902 153.104 161.654 152.888 161.35 152.744C161.046 152.6 160.718 152.504 160.366 152.456C160.014 152.408 159.686 152.384 159.382 152.384H157.294V150.608H159.31C159.598 150.608 159.894 150.592 160.198 150.56C160.518 150.512 160.806 150.424 161.062 150.296C161.334 150.168 161.558 149.992 161.734 149.768C161.91 149.528 161.998 149.216 161.998 148.832C161.998 148.528 161.918 148.272 161.758 148.064C161.614 147.84 161.414 147.656 161.158 147.512C160.902 147.368 160.598 147.264 160.246 147.2C159.91 147.12 159.558 147.08 159.19 147.08C158.902 147.08 158.59 147.104 158.254 147.152C157.918 147.2 157.59 147.264 157.27 147.344C156.95 147.408 156.662 147.48 156.406 147.56C156.15 147.64 155.966 147.712 155.854 147.776L155.446 145.856C155.574 145.808 155.774 145.744 156.046 145.664C156.318 145.584 156.622 145.512 156.958 145.448C157.31 145.384 157.678 145.328 158.062 145.28C158.446 145.232 158.822 145.208 159.19 145.208ZM171.988 156.392C172.516 156.392 172.98 156.384 173.38 156.368C173.796 156.336 174.14 156.288 174.412 156.224V152.504C174.252 152.424 173.988 152.36 173.62 152.312C173.268 152.248 172.836 152.216 172.324 152.216C171.988 152.216 171.628 152.24 171.244 152.288C170.876 152.336 170.532 152.44 170.212 152.6C169.908 152.744 169.652 152.952 169.444 153.224C169.236 153.48 169.132 153.824 169.132 154.256C169.132 155.056 169.388 155.616 169.9 155.936C170.412 156.24 171.108 156.392 171.988 156.392ZM171.796 145.208C172.692 145.208 173.444 145.328 174.052 145.568C174.676 145.792 175.172 146.12 175.54 146.552C175.924 146.968 176.196 147.472 176.356 148.064C176.516 148.64 176.596 149.28 176.596 149.984V157.784C176.404 157.816 176.132 157.864 175.78 157.928C175.444 157.976 175.06 158.024 174.628 158.072C174.196 158.12 173.724 158.16 173.212 158.192C172.716 158.24 172.22 158.264 171.724 158.264C171.02 158.264 170.372 158.192 169.78 158.048C169.188 157.904 168.676 157.68 168.244 157.376C167.812 157.056 167.476 156.64 167.236 156.128C166.996 155.616 166.876 155 166.876 154.28C166.876 153.592 167.012 153 167.284 152.504C167.572 152.008 167.956 151.608 168.436 151.304C168.916 151 169.476 150.776 170.116 150.632C170.756 150.488 171.428 150.416 172.132 150.416C172.356 150.416 172.588 150.432 172.828 150.464C173.068 150.48 173.292 150.512 173.5 150.56C173.724 150.592 173.916 150.624 174.076 150.656C174.236 150.688 174.348 150.712 174.412 150.728V150.104C174.412 149.736 174.372 149.376 174.292 149.024C174.212 148.656 174.068 148.336 173.86 148.064C173.652 147.776 173.364 147.552 172.996 147.392C172.644 147.216 172.18 147.128 171.604 147.128C170.868 147.128 170.22 147.184 169.66 147.296C169.116 147.392 168.708 147.496 168.436 147.608L168.172 145.76C168.46 145.632 168.94 145.512 169.612 145.4C170.284 145.272 171.012 145.208 171.796 145.208ZM178.767 156.176H180.111C180.639 155.408 181.055 154.616 181.359 153.8C181.679 152.984 181.919 152.144 182.079 151.28C182.239 150.4 182.343 149.488 182.391 148.544C182.439 147.584 182.471 146.576 182.487 145.52H190.671V156.176H192.351V161.48H190.239V158H180.879V161.48H178.767V156.176ZM188.439 156.176V147.392H184.527C184.511 148.144 184.471 148.904 184.407 149.672C184.343 150.424 184.239 151.176 184.095 151.928C183.951 152.664 183.743 153.392 183.471 154.112C183.215 154.816 182.887 155.504 182.487 156.176H188.439ZM205.78 151.76C205.78 152.752 205.636 153.648 205.348 154.448C205.06 155.248 204.652 155.936 204.124 156.512C203.612 157.088 202.996 157.536 202.276 157.856C201.556 158.16 200.772 158.312 199.924 158.312C199.076 158.312 198.292 158.16 197.572 157.856C196.852 157.536 196.228 157.088 195.7 156.512C195.188 155.936 194.788 155.248 194.5 154.448C194.212 153.648 194.068 152.752 194.068 151.76C194.068 150.784 194.212 149.896 194.5 149.096C194.788 148.28 195.188 147.584 195.7 147.008C196.228 146.432 196.852 145.992 197.572 145.688C198.292 145.368 199.076 145.208 199.924 145.208C200.772 145.208 201.556 145.368 202.276 145.688C202.996 145.992 203.612 146.432 204.124 147.008C204.652 147.584 205.06 148.28 205.348 149.096C205.636 149.896 205.78 150.784 205.78 151.76ZM203.452 151.76C203.452 150.352 203.132 149.24 202.492 148.424C201.868 147.592 201.012 147.176 199.924 147.176C198.836 147.176 197.972 147.592 197.332 148.424C196.708 149.24 196.396 150.352 196.396 151.76C196.396 153.168 196.708 154.288 197.332 155.12C197.972 155.936 198.836 156.344 199.924 156.344C201.012 156.344 201.868 155.936 202.492 155.12C203.132 154.288 203.452 153.168 203.452 151.76ZM211.104 156.32C211.2 156.336 211.336 156.352 211.512 156.368C211.688 156.384 211.888 156.4 212.112 156.416C212.336 156.416 212.568 156.424 212.808 156.44C213.064 156.44 213.304 156.44 213.528 156.44C213.992 156.44 214.432 156.408 214.848 156.344C215.28 156.28 215.648 156.168 215.952 156.008C216.272 155.848 216.52 155.64 216.696 155.384C216.888 155.112 216.984 154.768 216.984 154.352C216.984 153.952 216.896 153.624 216.72 153.368C216.56 153.096 216.336 152.88 216.048 152.72C215.76 152.56 215.416 152.448 215.016 152.384C214.632 152.32 214.216 152.288 213.768 152.288H211.104V156.32ZM213.48 150.632C213.912 150.632 214.304 150.608 214.656 150.56C215.024 150.496 215.336 150.392 215.592 150.248C215.864 150.104 216.072 149.912 216.216 149.672C216.376 149.432 216.456 149.128 216.456 148.76C216.456 148.376 216.36 148.072 216.168 147.848C215.976 147.624 215.72 147.456 215.4 147.344C215.096 147.216 214.744 147.136 214.344 147.104C213.96 147.056 213.568 147.032 213.168 147.032C212.8 147.032 212.424 147.04 212.04 147.056C211.672 147.072 211.36 147.088 211.104 147.104V150.632H213.48ZM213.432 158.216C212.488 158.216 211.616 158.168 210.816 158.072C210.016 157.992 209.384 157.896 208.92 157.784V145.64C209.384 145.528 210.016 145.432 210.816 145.352C211.616 145.256 212.488 145.208 213.432 145.208C214.088 145.208 214.728 145.264 215.352 145.376C215.976 145.488 216.528 145.68 217.008 145.952C217.488 146.208 217.872 146.568 218.16 147.032C218.464 147.48 218.616 148.04 218.616 148.712C218.616 149.32 218.464 149.84 218.16 150.272C217.856 150.704 217.448 151.04 216.936 151.28C217.624 151.52 218.168 151.88 218.568 152.36C218.984 152.824 219.192 153.48 219.192 154.328C219.192 155.08 219.04 155.704 218.736 156.2C218.448 156.696 218.04 157.096 217.512 157.4C217 157.704 216.392 157.912 215.688 158.024C214.984 158.152 214.232 158.216 213.432 158.216ZM233.084 151.76C233.084 152.752 232.94 153.648 232.652 154.448C232.364 155.248 231.956 155.936 231.428 156.512C230.916 157.088 230.3 157.536 229.58 157.856C228.86 158.16 228.076 158.312 227.228 158.312C226.38 158.312 225.596 158.16 224.876 157.856C224.156 157.536 223.532 157.088 223.004 156.512C222.492 155.936 222.092 155.248 221.804 154.448C221.516 153.648 221.372 152.752 221.372 151.76C221.372 150.784 221.516 149.896 221.804 149.096C222.092 148.28 222.492 147.584 223.004 147.008C223.532 146.432 224.156 145.992 224.876 145.688C225.596 145.368 226.38 145.208 227.228 145.208C228.076 145.208 228.86 145.368 229.58 145.688C230.3 145.992 230.916 146.432 231.428 147.008C231.956 147.584 232.364 148.28 232.652 149.096C232.94 149.896 233.084 150.784 233.084 151.76ZM230.756 151.76C230.756 150.352 230.436 149.24 229.796 148.424C229.172 147.592 228.316 147.176 227.228 147.176C226.14 147.176 225.276 147.592 224.636 148.424C224.012 149.24 223.7 150.352 223.7 151.76C223.7 153.168 224.012 154.288 224.636 155.12C225.276 155.936 226.14 156.344 227.228 156.344C228.316 156.344 229.172 155.936 229.796 155.12C230.436 154.288 230.756 153.168 230.756 151.76ZM240.569 147.392C240.569 147.92 240.553 148.488 240.521 149.096C240.505 149.688 240.465 150.288 240.401 150.896C240.337 151.488 240.249 152.08 240.137 152.672C240.025 153.248 239.881 153.792 239.705 154.304C239.529 154.816 239.305 155.296 239.033 155.744C238.777 156.192 238.457 156.592 238.073 156.944C237.689 157.28 237.241 157.568 236.729 157.808C236.217 158.032 235.617 158.176 234.929 158.24L234.617 156.368C235.401 156.208 236.017 155.912 236.465 155.48C236.929 155.048 237.297 154.52 237.569 153.896C237.809 153.352 237.985 152.736 238.097 152.048C238.209 151.36 238.289 150.648 238.337 149.912C238.385 149.16 238.409 148.408 238.409 147.656C238.425 146.904 238.433 146.192 238.433 145.52H246.737V158H244.505V147.392H240.569ZM249.872 151.784C249.872 150.68 250.032 149.72 250.352 148.904C250.672 148.072 251.096 147.384 251.624 146.84C252.152 146.296 252.76 145.888 253.448 145.616C254.136 145.344 254.84 145.208 255.56 145.208C257.24 145.208 258.528 145.736 259.424 146.792C260.32 147.832 260.768 149.424 260.768 151.568C260.768 151.664 260.768 151.792 260.768 151.952C260.768 152.096 260.76 152.232 260.744 152.36H252.2C252.296 153.656 252.672 154.64 253.328 155.312C253.984 155.984 255.008 156.32 256.4 156.32C257.184 156.32 257.84 156.256 258.368 156.128C258.912 155.984 259.32 155.848 259.592 155.72L259.904 157.592C259.632 157.736 259.152 157.888 258.464 158.048C257.792 158.208 257.024 158.288 256.16 158.288C255.072 158.288 254.128 158.128 253.328 157.808C252.544 157.472 251.896 157.016 251.384 156.44C250.872 155.864 250.488 155.184 250.232 154.4C249.992 153.6 249.872 152.728 249.872 151.784ZM258.44 150.56C258.456 149.552 258.2 148.728 257.672 148.088C257.16 147.432 256.448 147.104 255.536 147.104C255.024 147.104 254.568 147.208 254.168 147.416C253.784 147.608 253.456 147.864 253.184 148.184C252.912 148.504 252.696 148.872 252.536 149.288C252.392 149.704 252.296 150.128 252.248 150.56H258.44ZM274.199 158H271.967V152.48H266.207V158H263.975V145.52H266.207V150.608H271.967V145.52H274.199V158ZM282.261 156.392C282.789 156.392 283.253 156.384 283.653 156.368C284.069 156.336 284.413 156.288 284.685 156.224V152.504C284.525 152.424 284.261 152.36 283.893 152.312C283.541 152.248 283.109 152.216 282.597 152.216C282.261 152.216 281.901 152.24 281.517 152.288C281.149 152.336 280.805 152.44 280.485 152.6C280.181 152.744 279.925 152.952 279.717 153.224C279.509 153.48 279.405 153.824 279.405 154.256C279.405 155.056 279.661 155.616 280.173 155.936C280.685 156.24 281.381 156.392 282.261 156.392ZM282.069 145.208C282.965 145.208 283.717 145.328 284.325 145.568C284.949 145.792 285.445 146.12 285.813 146.552C286.197 146.968 286.469 147.472 286.629 148.064C286.789 148.64 286.869 149.28 286.869 149.984V157.784C286.677 157.816 286.405 157.864 286.053 157.928C285.717 157.976 285.333 158.024 284.901 158.072C284.469 158.12 283.997 158.16 283.485 158.192C282.989 158.24 282.493 158.264 281.997 158.264C281.293 158.264 280.645 158.192 280.053 158.048C279.461 157.904 278.949 157.68 278.517 157.376C278.085 157.056 277.749 156.64 277.509 156.128C277.269 155.616 277.149 155 277.149 154.28C277.149 153.592 277.285 153 277.557 152.504C277.845 152.008 278.229 151.608 278.709 151.304C279.189 151 279.749 150.776 280.389 150.632C281.029 150.488 281.701 150.416 282.405 150.416C282.629 150.416 282.861 150.432 283.101 150.464C283.341 150.48 283.565 150.512 283.773 150.56C283.997 150.592 284.189 150.624 284.349 150.656C284.509 150.688 284.621 150.712 284.685 150.728V150.104C284.685 149.736 284.645 149.376 284.565 149.024C284.485 148.656 284.341 148.336 284.133 148.064C283.925 147.776 283.637 147.552 283.269 147.392C282.917 147.216 282.453 147.128 281.877 147.128C281.141 147.128 280.493 147.184 279.933 147.296C279.389 147.392 278.981 147.496 278.709 147.608L278.445 145.76C278.733 145.632 279.213 145.512 279.885 145.4C280.557 145.272 281.285 145.208 282.069 145.208ZM298.483 155.264C298.499 155.392 298.507 155.52 298.507 155.648C298.507 155.76 298.507 155.88 298.507 156.008C298.507 157.016 298.355 158.008 298.051 158.984C297.763 159.976 297.363 160.92 296.851 161.816L295.123 161.264C295.523 160.448 295.787 159.616 295.915 158.768C296.043 157.936 296.107 157.152 296.107 156.416C296.107 156.208 296.099 156.008 296.083 155.816C296.083 155.624 296.075 155.44 296.059 155.264H298.483ZM298.771 147.128C298.771 147.56 298.627 147.936 298.339 148.256C298.051 148.576 297.659 148.736 297.163 148.736C296.667 148.736 296.275 148.576 295.987 148.256C295.699 147.936 295.555 147.56 295.555 147.128C295.555 146.696 295.699 146.32 295.987 146C296.275 145.68 296.667 145.52 297.163 145.52C297.659 145.52 298.051 145.68 298.339 146C298.627 146.32 298.771 146.696 298.771 147.128ZM303.789 150.824C303.789 148.776 303.493 146.88 302.901 145.136C302.309 143.392 301.437 141.776 300.285 140.288L301.869 139.208C303.117 140.728 304.117 142.48 304.869 144.464C305.637 146.432 306.021 148.552 306.021 150.824C306.021 153.096 305.637 155.224 304.869 157.208C304.117 159.176 303.117 160.92 301.869 162.44L300.285 161.36C301.437 159.872 302.309 158.256 302.901 156.512C303.493 154.768 303.789 152.872 303.789 150.824Z" fill="#707070"/>
<defs>
<filter id="filter0_d_92_182" x="0" y="0" width="462" height="252" filterUnits="userSpaceOnUse" color-interpolation-filters="sRGB">
<feFlood flood-opacity="0" result="BackgroundImageFix"/>
<feColorMatrix in="SourceAlpha" type="matrix" values="0 0 0 0 0 0 0 0 0 0 0 0 0 0 0 0 0 0 127 0" result="hardAlpha"/>
<feOffset dy="5"/>
<feGaussianBlur stdDeviation="10"/>
<feComposite in2="hardAlpha" operator="out"/>
<feColorMatrix type="matrix" values="0 0 0 0 0 0 0 0 0 0 0 0 0 0 0 0 0 0 0.1 0"/>
<feBlend mode="normal" in2="BackgroundImageFix" result="effect1_dropShadow_92_182"/>
<feBlend mode="normal" in="SourceGraphic" in2="effect1_dropShadow_92_182" result="shape"/>
</filter>
</defs>
</svg>
