<svg width="463" height="252" viewBox="0 0 463 252" fill="none" xmlns="http://www.w3.org/2000/svg">
<g filter="url(#filter0_d_89_181)">
<rect x="20.002" y="15" width="422" height="212" rx="28" fill="white"/>
</g>
<path d="M72.0735 102.144C71.7375 102.144 71.3695 102.136 70.9695 102.12C70.5855 102.104 70.1935 102.08 69.7935 102.048C69.4095 102.016 69.0255 101.976 68.6415 101.928C68.2575 101.88 67.9055 101.816 67.5855 101.736V85.608C67.9055 85.528 68.2575 85.464 68.6415 85.416C69.0255 85.368 69.4095 85.328 69.7935 85.296C70.1935 85.264 70.5855 85.24 70.9695 85.224C71.3535 85.208 71.7135 85.2 72.0495 85.2C73.0095 85.2 73.9055 85.272 74.7375 85.416C75.5855 85.56 76.3135 85.808 76.9215 86.16C77.5455 86.496 78.0335 86.944 78.3855 87.504C78.7375 88.064 78.9135 88.752 78.9135 89.568C78.9135 90.48 78.6975 91.232 78.2655 91.824C77.8335 92.4 77.2575 92.832 76.5375 93.12C77.5135 93.408 78.2895 93.864 78.8655 94.488C79.4415 95.112 79.7295 95.992 79.7295 97.128C79.7295 98.792 79.1135 100.048 77.8815 100.896C76.6655 101.728 74.7295 102.144 72.0735 102.144ZM69.8895 94.248V100.104C70.0655 100.12 70.2735 100.136 70.5135 100.152C70.7215 100.168 70.9615 100.184 71.2335 100.2C71.5215 100.2 71.8495 100.2 72.2175 100.2C72.9055 100.2 73.5535 100.16 74.1615 100.08C74.7855 99.984 75.3295 99.824 75.7935 99.6C76.2575 99.376 76.6255 99.064 76.8975 98.664C77.1855 98.264 77.3295 97.76 77.3295 97.152C77.3295 96.608 77.2255 96.152 77.0175 95.784C76.8095 95.4 76.5055 95.096 76.1055 94.872C75.7215 94.648 75.2575 94.488 74.7135 94.392C74.1695 94.296 73.5615 94.248 72.8895 94.248H69.8895ZM69.8895 92.376H72.3375C72.9135 92.376 73.4575 92.336 73.9695 92.256C74.4815 92.176 74.9215 92.032 75.2895 91.824C75.6735 91.616 75.9695 91.344 76.1775 91.008C76.4015 90.672 76.5135 90.248 76.5135 89.736C76.5135 89.256 76.4015 88.856 76.1775 88.536C75.9535 88.2 75.6415 87.936 75.2415 87.744C74.8575 87.536 74.4015 87.384 73.8735 87.288C73.3455 87.192 72.7855 87.144 72.1935 87.144C71.6015 87.144 71.1375 87.152 70.8015 87.168C70.4655 87.184 70.1615 87.208 69.8895 87.24V92.376ZM88.2874 102.288C87.2794 102.288 86.3914 102.128 85.6234 101.808C84.8714 101.488 84.2314 101.04 83.7034 100.464C83.1914 99.888 82.8074 99.208 82.5514 98.424C82.2954 97.624 82.1674 96.744 82.1674 95.784C82.1674 94.824 82.3034 93.944 82.5754 93.144C82.8634 92.344 83.2634 91.656 83.7754 91.08C84.2874 90.488 84.9114 90.032 85.6474 89.712C86.3994 89.376 87.2314 89.208 88.1434 89.208C88.7034 89.208 89.2634 89.256 89.8234 89.352C90.3834 89.448 90.9194 89.6 91.4314 89.808L90.9274 91.704C90.5914 91.544 90.1994 91.416 89.7514 91.32C89.3194 91.224 88.8554 91.176 88.3594 91.176C87.1114 91.176 86.1514 91.568 85.4794 92.352C84.8234 93.136 84.4954 94.28 84.4954 95.784C84.4954 96.456 84.5674 97.072 84.7114 97.632C84.8714 98.192 85.1114 98.672 85.4314 99.072C85.7674 99.472 86.1914 99.784 86.7034 100.008C87.2154 100.216 87.8394 100.32 88.5754 100.32C89.1674 100.32 89.7034 100.264 90.1834 100.152C90.6634 100.04 91.0394 99.92 91.3114 99.792L91.6234 101.664C91.4954 101.744 91.3114 101.824 91.0714 101.904C90.8314 101.968 90.5594 102.024 90.2554 102.072C89.9514 102.136 89.6234 102.184 89.2714 102.216C88.9354 102.264 88.6074 102.288 88.2874 102.288ZM93.3236 95.784C93.3236 94.68 93.4836 93.72 93.8036 92.904C94.1236 92.072 94.5476 91.384 95.0756 90.84C95.6036 90.296 96.2116 89.888 96.8996 89.616C97.5876 89.344 98.2916 89.208 99.0116 89.208C100.692 89.208 101.98 89.736 102.876 90.792C103.772 91.832 104.22 93.424 104.22 95.568C104.22 95.664 104.22 95.792 104.22 95.952C104.22 96.096 104.212 96.232 104.196 96.36H95.6516C95.7476 97.656 96.1236 98.64 96.7796 99.312C97.4356 99.984 98.4596 100.32 99.8516 100.32C100.636 100.32 101.292 100.256 101.82 100.128C102.364 99.984 102.772 99.848 103.044 99.72L103.356 101.592C103.084 101.736 102.604 101.888 101.916 102.048C101.244 102.208 100.476 102.288 99.6116 102.288C98.5236 102.288 97.5796 102.128 96.7796 101.808C95.9956 101.472 95.3476 101.016 94.8356 100.44C94.3236 99.864 93.9396 99.184 93.6836 98.4C93.4436 97.6 93.3236 96.728 93.3236 95.784ZM101.892 94.56C101.908 93.552 101.652 92.728 101.124 92.088C100.612 91.432 99.8996 91.104 98.9876 91.104C98.4756 91.104 98.0196 91.208 97.6196 91.416C97.2356 91.608 96.9076 91.864 96.6356 92.184C96.3636 92.504 96.1476 92.872 95.9876 93.288C95.8436 93.704 95.7476 94.128 95.6996 94.56H101.892ZM111.445 100.176H112.789C113.317 99.408 113.733 98.616 114.037 97.8C114.357 96.984 114.597 96.144 114.757 95.28C114.917 94.4 115.021 93.488 115.069 92.544C115.117 91.584 115.149 90.576 115.165 89.52H123.349V100.176H125.029V105.48H122.917V102H113.557V105.48H111.445V100.176ZM121.117 100.176V91.392H117.205C117.189 92.144 117.149 92.904 117.085 93.672C117.021 94.424 116.917 95.176 116.773 95.928C116.629 96.664 116.421 97.392 116.149 98.112C115.893 98.816 115.565 99.504 115.165 100.176H121.117ZM126.563 104.328C126.739 104.408 126.963 104.48 127.235 104.544C127.523 104.624 127.803 104.664 128.075 104.664C128.955 104.664 129.643 104.464 130.139 104.064C130.635 103.68 131.083 103.048 131.483 102.168C130.475 100.248 129.531 98.216 128.651 96.072C127.787 93.912 127.067 91.728 126.491 89.52H128.891C129.067 90.24 129.275 91.016 129.515 91.848C129.771 92.68 130.051 93.536 130.355 94.416C130.659 95.296 130.987 96.176 131.339 97.056C131.691 97.936 132.059 98.784 132.443 99.6C133.051 97.92 133.579 96.256 134.027 94.608C134.475 92.96 134.899 91.264 135.299 89.52H137.603C137.027 91.872 136.387 94.136 135.683 96.312C134.979 98.472 134.219 100.496 133.403 102.384C133.083 103.104 132.747 103.72 132.395 104.232C132.059 104.76 131.683 105.192 131.267 105.528C130.851 105.864 130.379 106.112 129.851 106.272C129.339 106.432 128.755 106.512 128.099 106.512C127.923 106.512 127.739 106.496 127.547 106.464C127.355 106.448 127.163 106.416 126.971 106.368C126.795 106.336 126.627 106.296 126.467 106.248C126.323 106.2 126.219 106.16 126.155 106.128L126.563 104.328ZM155.341 89.52C155.021 89.92 154.661 90.36 154.261 90.84C153.861 91.304 153.445 91.792 153.013 92.304C152.581 92.8 152.141 93.296 151.693 93.792C151.261 94.288 150.845 94.76 150.445 95.208C150.925 95.672 151.421 96.176 151.933 96.72C152.445 97.264 152.941 97.832 153.421 98.424C153.917 99 154.389 99.6 154.837 100.224C155.285 100.832 155.677 101.424 156.013 102H153.517C153.181 101.472 152.789 100.92 152.341 100.344C151.909 99.752 151.453 99.184 150.973 98.64C150.509 98.096 150.037 97.592 149.557 97.128C149.093 96.648 148.661 96.256 148.261 95.952V102H146.125V95.952C145.725 96.256 145.285 96.648 144.805 97.128C144.341 97.592 143.869 98.096 143.389 98.64C142.925 99.184 142.469 99.752 142.021 100.344C141.589 100.92 141.205 101.472 140.869 102H138.397C138.733 101.424 139.117 100.832 139.549 100.224C139.997 99.616 140.461 99.024 140.941 98.448C141.437 97.856 141.941 97.288 142.453 96.744C142.965 96.2 143.461 95.696 143.941 95.232C143.541 94.784 143.117 94.312 142.669 93.816C142.237 93.32 141.805 92.824 141.373 92.328C140.941 91.816 140.525 91.328 140.125 90.864C139.725 90.384 139.357 89.936 139.021 89.52H141.493C142.069 90.24 142.733 91.04 143.485 91.92C144.237 92.8 145.117 93.816 146.125 94.968V89.52H148.261V94.968C149.269 93.816 150.149 92.8 150.901 91.92C151.653 91.04 152.317 90.24 152.893 89.52H155.341ZM156.933 95.784C156.933 94.68 157.093 93.72 157.413 92.904C157.733 92.072 158.157 91.384 158.685 90.84C159.213 90.296 159.821 89.888 160.509 89.616C161.197 89.344 161.901 89.208 162.621 89.208C164.301 89.208 165.589 89.736 166.485 90.792C167.381 91.832 167.829 93.424 167.829 95.568C167.829 95.664 167.829 95.792 167.829 95.952C167.829 96.096 167.821 96.232 167.805 96.36H159.261C159.357 97.656 159.733 98.64 160.389 99.312C161.045 99.984 162.069 100.32 163.461 100.32C164.245 100.32 164.901 100.256 165.429 100.128C165.973 99.984 166.381 99.848 166.653 99.72L166.965 101.592C166.693 101.736 166.213 101.888 165.525 102.048C164.853 102.208 164.085 102.288 163.221 102.288C162.133 102.288 161.189 102.128 160.389 101.808C159.605 101.472 158.957 101.016 158.445 100.44C157.933 99.864 157.549 99.184 157.293 98.4C157.053 97.6 156.933 96.728 156.933 95.784ZM165.501 94.56C165.517 93.552 165.261 92.728 164.733 92.088C164.221 91.432 163.509 91.104 162.597 91.104C162.085 91.104 161.629 91.208 161.229 91.416C160.845 91.608 160.517 91.864 160.245 92.184C159.973 92.504 159.757 92.872 159.597 93.288C159.453 93.704 159.357 94.128 159.309 94.56H165.501ZM182.014 102.288C181.006 102.288 180.118 102.128 179.35 101.808C178.598 101.488 177.958 101.04 177.43 100.464C176.918 99.888 176.534 99.208 176.278 98.424C176.022 97.624 175.894 96.744 175.894 95.784C175.894 94.824 176.03 93.944 176.302 93.144C176.59 92.344 176.99 91.656 177.502 91.08C178.014 90.488 178.638 90.032 179.374 89.712C180.126 89.376 180.958 89.208 181.87 89.208C182.43 89.208 182.99 89.256 183.55 89.352C184.11 89.448 184.646 89.6 185.158 89.808L184.654 91.704C184.318 91.544 183.926 91.416 183.478 91.32C183.046 91.224 182.582 91.176 182.086 91.176C180.838 91.176 179.878 91.568 179.206 92.352C178.55 93.136 178.222 94.28 178.222 95.784C178.222 96.456 178.294 97.072 178.438 97.632C178.598 98.192 178.838 98.672 179.158 99.072C179.494 99.472 179.918 99.784 180.43 100.008C180.942 100.216 181.566 100.32 182.302 100.32C182.894 100.32 183.43 100.264 183.91 100.152C184.39 100.04 184.766 99.92 185.038 99.792L185.35 101.664C185.222 101.744 185.038 101.824 184.798 101.904C184.558 101.968 184.286 102.024 183.982 102.072C183.678 102.136 183.35 102.184 182.998 102.216C182.662 102.264 182.334 102.288 182.014 102.288ZM197.778 102H195.546V91.392H189.978V102H187.746V89.52H197.778V102ZM212.637 95.76C212.637 96.752 212.493 97.648 212.205 98.448C211.917 99.248 211.509 99.936 210.981 100.512C210.469 101.088 209.853 101.536 209.133 101.856C208.413 102.16 207.629 102.312 206.781 102.312C205.933 102.312 205.149 102.16 204.429 101.856C203.709 101.536 203.085 101.088 202.557 100.512C202.045 99.936 201.645 99.248 201.357 98.448C201.069 97.648 200.925 96.752 200.925 95.76C200.925 94.784 201.069 93.896 201.357 93.096C201.645 92.28 202.045 91.584 202.557 91.008C203.085 90.432 203.709 89.992 204.429 89.688C205.149 89.368 205.933 89.208 206.781 89.208C207.629 89.208 208.413 89.368 209.133 89.688C209.853 89.992 210.469 90.432 210.981 91.008C211.509 91.584 211.917 92.28 212.205 93.096C212.493 93.896 212.637 94.784 212.637 95.76ZM210.309 95.76C210.309 94.352 209.989 93.24 209.349 92.424C208.725 91.592 207.869 91.176 206.781 91.176C205.693 91.176 204.829 91.592 204.189 92.424C203.565 93.24 203.253 94.352 203.253 95.76C203.253 97.168 203.565 98.288 204.189 99.12C204.829 99.936 205.693 100.344 206.781 100.344C207.869 100.344 208.725 99.936 209.349 99.12C209.989 98.288 210.309 97.168 210.309 95.76ZM214.241 100.176H215.585C216.113 99.408 216.529 98.616 216.833 97.8C217.153 96.984 217.393 96.144 217.553 95.28C217.713 94.4 217.817 93.488 217.865 92.544C217.913 91.584 217.945 90.576 217.961 89.52H226.145V100.176H227.825V105.48H225.713V102H216.353V105.48H214.241V100.176ZM223.913 100.176V91.392H220.001C219.985 92.144 219.945 92.904 219.881 93.672C219.817 94.424 219.713 95.176 219.569 95.928C219.425 96.664 219.217 97.392 218.945 98.112C218.689 98.816 218.361 99.504 217.961 100.176H223.913ZM241.254 95.76C241.254 96.752 241.11 97.648 240.822 98.448C240.534 99.248 240.126 99.936 239.598 100.512C239.086 101.088 238.47 101.536 237.75 101.856C237.03 102.16 236.246 102.312 235.398 102.312C234.55 102.312 233.766 102.16 233.046 101.856C232.326 101.536 231.702 101.088 231.174 100.512C230.662 99.936 230.262 99.248 229.974 98.448C229.686 97.648 229.542 96.752 229.542 95.76C229.542 94.784 229.686 93.896 229.974 93.096C230.262 92.28 230.662 91.584 231.174 91.008C231.702 90.432 232.326 89.992 233.046 89.688C233.766 89.368 234.55 89.208 235.398 89.208C236.246 89.208 237.03 89.368 237.75 89.688C238.47 89.992 239.086 90.432 239.598 91.008C240.126 91.584 240.534 92.28 240.822 93.096C241.11 93.896 241.254 94.784 241.254 95.76ZM238.926 95.76C238.926 94.352 238.606 93.24 237.966 92.424C237.342 91.592 236.486 91.176 235.398 91.176C234.31 91.176 233.446 91.592 232.806 92.424C232.182 93.24 231.87 94.352 231.87 95.76C231.87 97.168 232.182 98.288 232.806 99.12C233.446 99.936 234.31 100.344 235.398 100.344C236.486 100.344 237.342 99.936 237.966 99.12C238.606 98.288 238.926 97.168 238.926 95.76ZM246.411 90.96C246.907 90.56 247.483 90.256 248.139 90.048C248.811 89.824 249.451 89.712 250.059 89.712C251.851 89.712 253.203 90.264 254.115 91.368C255.043 92.456 255.507 93.976 255.507 95.928C255.507 96.76 255.395 97.56 255.171 98.328C254.947 99.096 254.595 99.776 254.115 100.368C253.651 100.96 253.059 101.432 252.339 101.784C251.619 102.136 250.763 102.312 249.771 102.312C248.635 102.312 247.691 102.104 246.939 101.688C246.187 101.272 245.587 100.704 245.139 99.984C244.707 99.264 244.403 98.424 244.227 97.464C244.051 96.504 243.963 95.488 243.963 94.416C243.963 93.024 244.059 91.728 244.251 90.528C244.459 89.328 244.827 88.272 245.355 87.36C245.883 86.448 246.611 85.696 247.539 85.104C248.483 84.496 249.691 84.088 251.163 83.88C251.595 83.816 251.971 83.768 252.291 83.736C252.627 83.688 252.915 83.648 253.155 83.616C253.411 83.584 253.643 83.552 253.851 83.52C254.059 83.472 254.275 83.424 254.499 83.376L254.739 85.392C254.627 85.424 254.507 85.448 254.379 85.464C254.267 85.48 254.099 85.504 253.875 85.536C253.667 85.568 253.379 85.608 253.011 85.656C252.659 85.704 252.195 85.76 251.619 85.824C250.035 86 248.819 86.48 247.971 87.264C247.123 88.048 246.603 89.28 246.411 90.96ZM246.267 94.776C246.267 95.528 246.315 96.24 246.411 96.912C246.523 97.584 246.707 98.176 246.963 98.688C247.235 99.2 247.595 99.608 248.043 99.912C248.491 100.2 249.067 100.344 249.771 100.344C250.379 100.344 250.899 100.232 251.331 100.008C251.763 99.768 252.115 99.448 252.387 99.048C252.659 98.648 252.859 98.184 252.987 97.656C253.115 97.112 253.179 96.536 253.179 95.928C253.179 95.384 253.123 94.856 253.011 94.344C252.915 93.832 252.731 93.376 252.459 92.976C252.187 92.576 251.819 92.256 251.355 92.016C250.907 91.776 250.339 91.656 249.651 91.656C248.979 91.656 248.331 91.8 247.707 92.088C247.099 92.376 246.627 92.728 246.291 93.144C246.275 93.32 246.267 93.568 246.267 93.888C246.267 94.208 246.267 94.504 246.267 94.776ZM262.892 100.392C263.42 100.392 263.884 100.384 264.284 100.368C264.7 100.336 265.044 100.288 265.316 100.224V96.504C265.156 96.424 264.892 96.36 264.524 96.312C264.172 96.248 263.74 96.216 263.228 96.216C262.892 96.216 262.532 96.24 262.148 96.288C261.78 96.336 261.436 96.44 261.116 96.6C260.812 96.744 260.556 96.952 260.348 97.224C260.14 97.48 260.036 97.824 260.036 98.256C260.036 99.056 260.292 99.616 260.804 99.936C261.316 100.24 262.012 100.392 262.892 100.392ZM262.7 89.208C263.596 89.208 264.348 89.328 264.956 89.568C265.58 89.792 266.076 90.12 266.444 90.552C266.828 90.968 267.1 91.472 267.26 92.064C267.42 92.64 267.5 93.28 267.5 93.984V101.784C267.308 101.816 267.036 101.864 266.684 101.928C266.348 101.976 265.964 102.024 265.532 102.072C265.1 102.12 264.628 102.16 264.116 102.192C263.62 102.24 263.124 102.264 262.628 102.264C261.924 102.264 261.276 102.192 260.684 102.048C260.092 101.904 259.58 101.68 259.148 101.376C258.716 101.056 258.38 100.64 258.14 100.128C257.9 99.616 257.78 99 257.78 98.28C257.78 97.592 257.916 97 258.188 96.504C258.476 96.008 258.86 95.608 259.34 95.304C259.82 95 260.38 94.776 261.02 94.632C261.66 94.488 262.332 94.416 263.036 94.416C263.26 94.416 263.492 94.432 263.732 94.464C263.972 94.48 264.196 94.512 264.404 94.56C264.628 94.592 264.82 94.624 264.98 94.656C265.14 94.688 265.252 94.712 265.316 94.728V94.104C265.316 93.736 265.276 93.376 265.196 93.024C265.116 92.656 264.972 92.336 264.764 92.064C264.556 91.776 264.268 91.552 263.9 91.392C263.548 91.216 263.084 91.128 262.508 91.128C261.772 91.128 261.124 91.184 260.564 91.296C260.02 91.392 259.612 91.496 259.34 91.608L259.076 89.76C259.364 89.632 259.844 89.512 260.516 89.4C261.188 89.272 261.916 89.208 262.7 89.208ZM275.551 91.392C275.551 91.92 275.535 92.488 275.503 93.096C275.487 93.688 275.447 94.288 275.383 94.896C275.319 95.488 275.231 96.08 275.119 96.672C275.007 97.248 274.863 97.792 274.687 98.304C274.511 98.816 274.287 99.296 274.015 99.744C273.759 100.192 273.439 100.592 273.055 100.944C272.671 101.28 272.223 101.568 271.711 101.808C271.199 102.032 270.599 102.176 269.911 102.24L269.599 100.368C270.383 100.208 270.999 99.912 271.447 99.48C271.911 99.048 272.279 98.52 272.551 97.896C272.791 97.352 272.967 96.736 273.079 96.048C273.191 95.36 273.271 94.648 273.319 93.912C273.367 93.16 273.391 92.408 273.391 91.656C273.407 90.904 273.415 90.192 273.415 89.52H281.719V102H279.487V91.392H275.551ZM296.567 95.76C296.567 96.752 296.423 97.648 296.135 98.448C295.847 99.248 295.439 99.936 294.911 100.512C294.399 101.088 293.783 101.536 293.063 101.856C292.343 102.16 291.559 102.312 290.711 102.312C289.863 102.312 289.079 102.16 288.359 101.856C287.639 101.536 287.015 101.088 286.487 100.512C285.975 99.936 285.575 99.248 285.287 98.448C284.999 97.648 284.855 96.752 284.855 95.76C284.855 94.784 284.999 93.896 285.287 93.096C285.575 92.28 285.975 91.584 286.487 91.008C287.015 90.432 287.639 89.992 288.359 89.688C289.079 89.368 289.863 89.208 290.711 89.208C291.559 89.208 292.343 89.368 293.063 89.688C293.783 89.992 294.399 90.432 294.911 91.008C295.439 91.584 295.847 92.28 296.135 93.096C296.423 93.896 296.567 94.784 296.567 95.76ZM294.239 95.76C294.239 94.352 293.919 93.24 293.279 92.424C292.655 91.592 291.799 91.176 290.711 91.176C289.623 91.176 288.759 91.592 288.119 92.424C287.495 93.24 287.183 94.352 287.183 95.76C287.183 97.168 287.495 98.288 288.119 99.12C288.759 99.936 289.623 100.344 290.711 100.344C291.799 100.344 292.655 99.936 293.279 99.12C293.919 98.288 294.239 97.168 294.239 95.76ZM305.131 102.288C304.123 102.288 303.235 102.128 302.467 101.808C301.715 101.488 301.075 101.04 300.547 100.464C300.035 99.888 299.651 99.208 299.395 98.424C299.139 97.624 299.011 96.744 299.011 95.784C299.011 94.824 299.147 93.944 299.419 93.144C299.707 92.344 300.107 91.656 300.619 91.08C301.131 90.488 301.755 90.032 302.491 89.712C303.243 89.376 304.075 89.208 304.987 89.208C305.547 89.208 306.107 89.256 306.667 89.352C307.227 89.448 307.763 89.6 308.275 89.808L307.771 91.704C307.435 91.544 307.043 91.416 306.595 91.32C306.163 91.224 305.699 91.176 305.203 91.176C303.955 91.176 302.995 91.568 302.323 92.352C301.667 93.136 301.339 94.28 301.339 95.784C301.339 96.456 301.411 97.072 301.555 97.632C301.715 98.192 301.955 98.672 302.275 99.072C302.611 99.472 303.035 99.784 303.547 100.008C304.059 100.216 304.683 100.32 305.419 100.32C306.011 100.32 306.547 100.264 307.027 100.152C307.507 100.04 307.883 99.92 308.155 99.792L308.467 101.664C308.339 101.744 308.155 101.824 307.915 101.904C307.675 101.968 307.403 102.024 307.099 102.072C306.795 102.136 306.467 102.184 306.115 102.216C305.779 102.264 305.451 102.288 305.131 102.288ZM315.591 100.44C316.535 100.44 317.279 100.256 317.823 99.888C318.367 99.52 318.639 98.928 318.639 98.112C318.639 97.712 318.559 97.368 318.399 97.08C318.239 96.792 318.015 96.56 317.727 96.384C317.455 96.192 317.135 96.056 316.767 95.976C316.399 95.88 316.007 95.832 315.591 95.832C315.159 95.832 314.711 95.848 314.247 95.88C313.799 95.896 313.415 95.944 313.095 96.024V100.32C313.191 100.336 313.335 100.352 313.527 100.368C313.719 100.384 313.927 100.4 314.151 100.416C314.391 100.416 314.631 100.424 314.871 100.44C315.127 100.44 315.367 100.44 315.591 100.44ZM310.863 101.736V89.52H313.095V94.296C313.223 94.264 313.391 94.232 313.599 94.2C313.823 94.168 314.055 94.136 314.295 94.104C314.551 94.072 314.815 94.048 315.087 94.032C315.359 94.016 315.615 94.008 315.855 94.008C316.543 94.008 317.191 94.088 317.799 94.248C318.407 94.392 318.935 94.632 319.383 94.968C319.847 95.288 320.215 95.712 320.487 96.24C320.759 96.752 320.895 97.368 320.895 98.088C320.895 98.84 320.767 99.48 320.511 100.008C320.255 100.536 319.887 100.968 319.407 101.304C318.927 101.64 318.351 101.88 317.679 102.024C317.023 102.184 316.287 102.264 315.471 102.264C314.671 102.264 313.887 102.216 313.119 102.12C312.351 102.04 311.599 101.912 310.863 101.736ZM325.895 99.264C325.911 99.392 325.919 99.52 325.919 99.648C325.919 99.76 325.919 99.88 325.919 100.008C325.919 101.016 325.767 102.008 325.463 102.984C325.175 103.976 324.775 104.92 324.263 105.816L322.535 105.264C322.935 104.448 323.199 103.616 323.327 102.768C323.455 101.936 323.519 101.152 323.519 100.416C323.519 100.208 323.511 100.008 323.495 99.816C323.495 99.624 323.487 99.44 323.471 99.264H325.895ZM340.164 97.152C339.924 97.152 339.692 97.152 339.468 97.152C339.244 97.136 339.028 97.12 338.82 97.104C338.308 97.872 337.812 98.696 337.332 99.576C336.868 100.44 336.452 101.248 336.084 102H333.828C334.02 101.536 334.244 101.064 334.5 100.584C334.756 100.088 335.012 99.608 335.268 99.144C335.54 98.68 335.812 98.24 336.084 97.824C336.356 97.408 336.612 97.032 336.852 96.696C336.404 96.536 336.036 96.344 335.748 96.12C335.46 95.88 335.228 95.616 335.052 95.328C334.876 95.04 334.748 94.736 334.668 94.416C334.604 94.08 334.572 93.744 334.572 93.408C334.572 92.704 334.7 92.088 334.956 91.56C335.228 91.032 335.596 90.6 336.06 90.264C336.524 89.912 337.068 89.648 337.692 89.472C338.332 89.296 339.028 89.208 339.78 89.208C340.836 89.208 341.732 89.256 342.468 89.352C343.204 89.448 343.82 89.56 344.316 89.688V102H342.108V97.152H340.164ZM342.108 91.176C341.932 91.144 341.636 91.112 341.22 91.08C340.82 91.048 340.356 91.032 339.828 91.032C338.916 91.032 338.18 91.224 337.62 91.608C337.06 91.976 336.78 92.568 336.78 93.384C336.78 94.184 337.068 94.736 337.644 95.04C338.22 95.344 338.964 95.496 339.876 95.496H342.108V91.176ZM352.712 95.208C353.208 95.56 353.744 96.008 354.32 96.552C354.896 97.08 355.456 97.656 356 98.28C356.56 98.904 357.08 99.544 357.56 100.2C358.04 100.84 358.448 101.44 358.784 102H356.144C355.792 101.456 355.376 100.904 354.896 100.344C354.432 99.768 353.944 99.216 353.432 98.688C352.92 98.16 352.4 97.672 351.872 97.224C351.344 96.776 350.848 96.4 350.384 96.096V102H348.152V89.52H350.384V94.872C350.768 94.504 351.208 94.08 351.704 93.6C352.2 93.104 352.696 92.608 353.192 92.112C353.704 91.6 354.176 91.12 354.608 90.672C355.04 90.208 355.392 89.824 355.664 89.52H358.256C357.904 89.904 357.488 90.344 357.008 90.84C356.544 91.32 356.056 91.816 355.544 92.328C355.048 92.84 354.552 93.352 354.056 93.864C353.56 94.36 353.112 94.808 352.712 95.208ZM363.275 102H361.043V89.52H363.275V102ZM362.147 87.264C361.747 87.264 361.403 87.136 361.115 86.88C360.843 86.608 360.707 86.248 360.707 85.8C360.707 85.352 360.843 85 361.115 84.744C361.403 84.472 361.747 84.336 362.147 84.336C362.547 84.336 362.883 84.472 363.155 84.744C363.443 85 363.587 85.352 363.587 85.8C363.587 86.248 363.443 86.608 363.155 86.88C362.883 87.136 362.547 87.264 362.147 87.264ZM372.537 102.288C371.529 102.288 370.641 102.128 369.873 101.808C369.121 101.488 368.481 101.04 367.953 100.464C367.441 99.888 367.057 99.208 366.801 98.424C366.545 97.624 366.417 96.744 366.417 95.784C366.417 94.824 366.553 93.944 366.825 93.144C367.113 92.344 367.513 91.656 368.025 91.08C368.537 90.488 369.161 90.032 369.897 89.712C370.649 89.376 371.481 89.208 372.393 89.208C372.953 89.208 373.513 89.256 374.073 89.352C374.633 89.448 375.169 89.6 375.681 89.808L375.177 91.704C374.841 91.544 374.449 91.416 374.001 91.32C373.569 91.224 373.105 91.176 372.609 91.176C371.361 91.176 370.401 91.568 369.729 92.352C369.073 93.136 368.745 94.28 368.745 95.784C368.745 96.456 368.817 97.072 368.961 97.632C369.121 98.192 369.361 98.672 369.681 99.072C370.017 99.472 370.441 99.784 370.953 100.008C371.465 100.216 372.089 100.32 372.825 100.32C373.417 100.32 373.953 100.264 374.433 100.152C374.913 100.04 375.289 99.92 375.561 99.792L375.873 101.664C375.745 101.744 375.561 101.824 375.321 101.904C375.081 101.968 374.809 102.024 374.505 102.072C374.201 102.136 373.873 102.184 373.521 102.216C373.185 102.264 372.857 102.288 372.537 102.288ZM388.494 102H386.262V96.48H380.502V102H378.27V89.52H380.502V94.608H386.262V89.52H388.494V102ZM394.564 102H392.332V89.52H394.564V102ZM393.436 87.264C393.036 87.264 392.692 87.136 392.404 86.88C392.132 86.608 391.996 86.248 391.996 85.8C391.996 85.352 392.132 85 392.404 84.744C392.692 84.472 393.036 84.336 393.436 84.336C393.836 84.336 394.172 84.472 394.444 84.744C394.732 85 394.876 85.352 394.876 85.8C394.876 86.248 394.732 86.608 394.444 86.88C394.172 87.136 393.836 87.264 393.436 87.264ZM75.5374 130.288C74.5294 130.288 73.6414 130.128 72.8734 129.808C72.1214 129.488 71.4814 129.04 70.9534 128.464C70.4414 127.888 70.0574 127.208 69.8014 126.424C69.5454 125.624 69.4174 124.744 69.4174 123.784C69.4174 122.824 69.5534 121.944 69.8254 121.144C70.1134 120.344 70.5134 119.656 71.0254 119.08C71.5374 118.488 72.1614 118.032 72.8974 117.712C73.6494 117.376 74.4814 117.208 75.3934 117.208C75.9534 117.208 76.5134 117.256 77.0734 117.352C77.6334 117.448 78.1694 117.6 78.6814 117.808L78.1774 119.704C77.8414 119.544 77.4494 119.416 77.0014 119.32C76.5694 119.224 76.1054 119.176 75.6094 119.176C74.3614 119.176 73.4014 119.568 72.7294 120.352C72.0734 121.136 71.7454 122.28 71.7454 123.784C71.7454 124.456 71.8174 125.072 71.9614 125.632C72.1214 126.192 72.3614 126.672 72.6814 127.072C73.0174 127.472 73.4414 127.784 73.9534 128.008C74.4654 128.216 75.0894 128.32 75.8254 128.32C76.4174 128.32 76.9534 128.264 77.4334 128.152C77.9134 128.04 78.2894 127.92 78.5614 127.792L78.8734 129.664C78.7454 129.744 78.5614 129.824 78.3214 129.904C78.0814 129.968 77.8094 130.024 77.5054 130.072C77.2014 130.136 76.8734 130.184 76.5214 130.216C76.1854 130.264 75.8574 130.288 75.5374 130.288ZM90.4292 117.52V119.392H86.3732V130H84.1412V119.392H80.0852V117.52H90.4292ZM94.9625 130H92.7305V117.52H94.9625V130ZM93.8345 115.264C93.4345 115.264 93.0905 115.136 92.8025 114.88C92.5305 114.608 92.3945 114.248 92.3945 113.8C92.3945 113.352 92.5305 113 92.8025 112.744C93.0905 112.472 93.4345 112.336 93.8345 112.336C94.2345 112.336 94.5705 112.472 94.8425 112.744C95.1305 113 95.2745 113.352 95.2745 113.8C95.2745 114.248 95.1305 114.608 94.8425 114.88C94.5705 115.136 94.2345 115.264 93.8345 115.264ZM103.361 123.208C103.857 123.56 104.393 124.008 104.969 124.552C105.545 125.08 106.105 125.656 106.649 126.28C107.209 126.904 107.729 127.544 108.209 128.2C108.689 128.84 109.097 129.44 109.433 130H106.793C106.441 129.456 106.025 128.904 105.545 128.344C105.081 127.768 104.593 127.216 104.081 126.688C103.569 126.16 103.049 125.672 102.521 125.224C101.993 124.776 101.497 124.4 101.033 124.096V130H98.8009V117.52H101.033V122.872C101.417 122.504 101.857 122.08 102.353 121.6C102.849 121.104 103.345 120.608 103.841 120.112C104.353 119.6 104.825 119.12 105.257 118.672C105.689 118.208 106.041 117.824 106.313 117.52H108.905C108.553 117.904 108.137 118.344 107.657 118.84C107.193 119.32 106.705 119.816 106.193 120.328C105.697 120.84 105.201 121.352 104.705 121.864C104.209 122.36 103.761 122.808 103.361 123.208ZM110.363 123.784C110.363 122.68 110.523 121.72 110.843 120.904C111.163 120.072 111.587 119.384 112.115 118.84C112.643 118.296 113.251 117.888 113.939 117.616C114.627 117.344 115.331 117.208 116.051 117.208C117.731 117.208 119.019 117.736 119.915 118.792C120.811 119.832 121.259 121.424 121.259 123.568C121.259 123.664 121.259 123.792 121.259 123.952C121.259 124.096 121.251 124.232 121.235 124.36H112.691C112.787 125.656 113.163 126.64 113.819 127.312C114.475 127.984 115.499 128.32 116.891 128.32C117.675 128.32 118.331 128.256 118.859 128.128C119.403 127.984 119.811 127.848 120.083 127.72L120.395 129.592C120.123 129.736 119.643 129.888 118.955 130.048C118.283 130.208 117.515 130.288 116.651 130.288C115.563 130.288 114.619 130.128 113.819 129.808C113.035 129.472 112.387 129.016 111.875 128.44C111.363 127.864 110.979 127.184 110.723 126.4C110.483 125.6 110.363 124.728 110.363 123.784ZM118.931 122.56C118.947 121.552 118.691 120.728 118.163 120.088C117.651 119.432 116.939 119.104 116.027 119.104C115.515 119.104 115.059 119.208 114.659 119.416C114.275 119.608 113.947 119.864 113.675 120.184C113.403 120.504 113.187 120.872 113.027 121.288C112.883 121.704 112.787 122.128 112.739 122.56H118.931ZM133.129 123.784C133.129 122.328 132.769 121.208 132.049 120.424C131.329 119.64 130.369 119.248 129.169 119.248C128.497 119.248 127.969 119.272 127.585 119.32C127.217 119.368 126.921 119.424 126.697 119.488V127.36C126.969 127.584 127.361 127.8 127.873 128.008C128.385 128.216 128.945 128.32 129.553 128.32C130.193 128.32 130.737 128.208 131.185 127.984C131.649 127.744 132.025 127.424 132.313 127.024C132.601 126.608 132.809 126.128 132.937 125.584C133.065 125.024 133.129 124.424 133.129 123.784ZM135.457 123.784C135.457 124.728 135.329 125.6 135.073 126.4C134.833 127.2 134.473 127.888 133.993 128.464C133.513 129.04 132.921 129.488 132.217 129.808C131.529 130.128 130.737 130.288 129.841 130.288C129.121 130.288 128.481 130.192 127.921 130C127.377 129.808 126.969 129.624 126.697 129.448V134.44H124.465V117.904C124.993 117.776 125.649 117.64 126.433 117.496C127.233 117.336 128.153 117.256 129.193 117.256C130.153 117.256 131.017 117.408 131.785 117.712C132.553 118.016 133.209 118.448 133.753 119.008C134.297 119.568 134.713 120.256 135.001 121.072C135.305 121.872 135.457 122.776 135.457 123.784ZM149.086 117.52V130H146.926V120.496C146.446 121.104 145.918 121.816 145.342 122.632C144.766 123.448 144.19 124.296 143.614 125.176C143.038 126.04 142.486 126.896 141.958 127.744C141.43 128.592 140.974 129.344 140.59 130H138.598V117.52H140.758V126.496C141.174 125.808 141.646 125.056 142.174 124.24C142.702 123.408 143.246 122.592 143.806 121.792C144.382 120.976 144.95 120.2 145.51 119.464C146.086 118.712 146.622 118.064 147.118 117.52H149.086ZM155.27 127.264C155.286 127.392 155.294 127.52 155.294 127.648C155.294 127.76 155.294 127.88 155.294 128.008C155.294 129.016 155.142 130.008 154.838 130.984C154.55 131.976 154.15 132.92 153.638 133.816L151.91 133.264C152.31 132.448 152.574 131.616 152.702 130.768C152.83 129.936 152.894 129.152 152.894 128.416C152.894 128.208 152.886 128.008 152.87 127.816C152.87 127.624 152.862 127.44 152.846 127.264H155.27ZM162.843 128.176H164.187C164.715 127.408 165.131 126.616 165.435 125.8C165.755 124.984 165.995 124.144 166.155 123.28C166.315 122.4 166.419 121.488 166.467 120.544C166.515 119.584 166.547 118.576 166.563 117.52H174.747V128.176H176.427V133.48H174.315V130H164.955V133.48H162.843V128.176ZM172.515 128.176V119.392H168.603C168.587 120.144 168.547 120.904 168.483 121.672C168.419 122.424 168.315 123.176 168.171 123.928C168.027 124.664 167.819 125.392 167.547 126.112C167.291 126.816 166.963 127.504 166.563 128.176H172.515ZM177.962 132.328C178.138 132.408 178.362 132.48 178.634 132.544C178.922 132.624 179.202 132.664 179.474 132.664C180.354 132.664 181.042 132.464 181.538 132.064C182.034 131.68 182.482 131.048 182.882 130.168C181.874 128.248 180.93 126.216 180.05 124.072C179.186 121.912 178.466 119.728 177.89 117.52H180.29C180.466 118.24 180.674 119.016 180.914 119.848C181.17 120.68 181.45 121.536 181.754 122.416C182.058 123.296 182.386 124.176 182.738 125.056C183.09 125.936 183.458 126.784 183.842 127.6C184.45 125.92 184.978 124.256 185.426 122.608C185.874 120.96 186.298 119.264 186.698 117.52H189.002C188.426 119.872 187.786 122.136 187.082 124.312C186.378 126.472 185.618 128.496 184.802 130.384C184.482 131.104 184.146 131.72 183.794 132.232C183.458 132.76 183.082 133.192 182.666 133.528C182.25 133.864 181.778 134.112 181.25 134.272C180.738 134.432 180.154 134.512 179.498 134.512C179.322 134.512 179.138 134.496 178.946 134.464C178.754 134.448 178.562 134.416 178.37 134.368C178.194 134.336 178.026 134.296 177.866 134.248C177.722 134.2 177.618 134.16 177.554 134.128L177.962 132.328ZM193.732 120.808C193.572 122.392 193.452 123.976 193.372 125.56C193.292 127.128 193.228 128.608 193.18 130H191.044C191.076 129.024 191.124 128.008 191.188 126.952C191.252 125.88 191.324 124.808 191.404 123.736C191.484 122.648 191.572 121.584 191.668 120.544C191.764 119.488 191.868 118.48 191.98 117.52H194.02C194.532 118.352 195.132 119.496 195.82 120.952C196.508 122.392 197.3 124.056 198.196 125.944C199.092 124.056 199.884 122.392 200.572 120.952C201.26 119.496 201.86 118.352 202.372 117.52H204.436C204.548 118.48 204.652 119.488 204.748 120.544C204.844 121.584 204.932 122.648 205.012 123.736C205.092 124.808 205.164 125.88 205.228 126.952C205.292 128.008 205.34 129.024 205.372 130H203.164C203.116 128.608 203.052 127.128 202.972 125.56C202.892 123.976 202.772 122.392 202.612 120.808C202.356 121.304 202.06 121.904 201.724 122.608C201.388 123.296 201.052 124 200.716 124.72C200.396 125.44 200.092 126.128 199.804 126.784C199.516 127.44 199.292 127.96 199.132 128.344H197.26C197.084 127.944 196.844 127.416 196.54 126.76C196.252 126.104 195.94 125.416 195.604 124.696C195.284 123.96 194.956 123.248 194.62 122.56C194.284 121.856 193.988 121.272 193.732 120.808ZM213.134 128.392C213.662 128.392 214.126 128.384 214.526 128.368C214.942 128.336 215.286 128.288 215.558 128.224V124.504C215.398 124.424 215.134 124.36 214.766 124.312C214.414 124.248 213.982 124.216 213.47 124.216C213.134 124.216 212.774 124.24 212.39 124.288C212.022 124.336 211.678 124.44 211.358 124.6C211.054 124.744 210.798 124.952 210.59 125.224C210.382 125.48 210.278 125.824 210.278 126.256C210.278 127.056 210.534 127.616 211.046 127.936C211.558 128.24 212.254 128.392 213.134 128.392ZM212.942 117.208C213.838 117.208 214.59 117.328 215.198 117.568C215.822 117.792 216.318 118.12 216.686 118.552C217.07 118.968 217.342 119.472 217.502 120.064C217.662 120.64 217.742 121.28 217.742 121.984V129.784C217.55 129.816 217.278 129.864 216.926 129.928C216.59 129.976 216.206 130.024 215.774 130.072C215.342 130.12 214.87 130.16 214.358 130.192C213.862 130.24 213.366 130.264 212.87 130.264C212.166 130.264 211.518 130.192 210.926 130.048C210.334 129.904 209.822 129.68 209.39 129.376C208.958 129.056 208.622 128.64 208.382 128.128C208.142 127.616 208.022 127 208.022 126.28C208.022 125.592 208.158 125 208.43 124.504C208.718 124.008 209.102 123.608 209.582 123.304C210.062 123 210.622 122.776 211.262 122.632C211.902 122.488 212.574 122.416 213.278 122.416C213.502 122.416 213.734 122.432 213.974 122.464C214.214 122.48 214.438 122.512 214.646 122.56C214.87 122.592 215.062 122.624 215.222 122.656C215.382 122.688 215.494 122.712 215.558 122.728V122.104C215.558 121.736 215.518 121.376 215.438 121.024C215.358 120.656 215.214 120.336 215.006 120.064C214.798 119.776 214.51 119.552 214.142 119.392C213.79 119.216 213.326 119.128 212.75 119.128C212.014 119.128 211.366 119.184 210.806 119.296C210.262 119.392 209.854 119.496 209.582 119.608L209.318 117.76C209.606 117.632 210.086 117.512 210.758 117.4C211.43 117.272 212.158 117.208 212.942 117.208ZM223.681 122.68H226.417C226.513 121.848 226.721 121.096 227.041 120.424C227.377 119.752 227.793 119.176 228.289 118.696C228.785 118.216 229.353 117.848 229.993 117.592C230.633 117.336 231.321 117.208 232.057 117.208C232.873 117.208 233.625 117.368 234.313 117.688C235.017 117.992 235.625 118.432 236.137 119.008C236.649 119.584 237.049 120.28 237.337 121.096C237.625 121.896 237.769 122.784 237.769 123.76C237.769 124.752 237.625 125.648 237.337 126.448C237.049 127.248 236.649 127.936 236.137 128.512C235.625 129.088 235.017 129.536 234.313 129.856C233.625 130.16 232.873 130.312 232.057 130.312C231.289 130.312 230.569 130.176 229.897 129.904C229.241 129.616 228.665 129.224 228.169 128.728C227.673 128.216 227.265 127.6 226.945 126.88C226.641 126.16 226.457 125.36 226.393 124.48H223.681V130H221.449V117.52H223.681V122.68ZM235.465 123.76C235.465 122.352 235.153 121.24 234.529 120.424C233.921 119.592 233.097 119.176 232.057 119.176C231.017 119.176 230.185 119.592 229.561 120.424C228.953 121.24 228.649 122.352 228.649 123.76C228.649 125.168 228.953 126.288 229.561 127.12C230.185 127.936 231.017 128.344 232.057 128.344C233.097 128.344 233.921 127.936 234.529 127.12C235.153 126.288 235.465 125.168 235.465 123.76ZM247.873 117.52V121.192C247.873 122.136 248.113 122.8 248.593 123.184C249.073 123.552 249.729 123.736 250.561 123.736C251.169 123.736 251.673 123.704 252.073 123.64C252.489 123.576 252.857 123.504 253.177 123.424V117.52H255.409V130H253.177V125.152C253.049 125.184 252.881 125.224 252.673 125.272C252.465 125.32 252.225 125.368 251.953 125.416C251.697 125.448 251.425 125.48 251.137 125.512C250.849 125.544 250.569 125.56 250.297 125.56C249.609 125.56 248.977 125.488 248.401 125.344C247.841 125.2 247.353 124.96 246.937 124.624C246.537 124.288 246.217 123.848 245.977 123.304C245.753 122.744 245.641 122.048 245.641 121.216V117.52H247.873ZM258.558 123.784C258.558 122.68 258.718 121.72 259.038 120.904C259.358 120.072 259.782 119.384 260.31 118.84C260.838 118.296 261.446 117.888 262.134 117.616C262.822 117.344 263.526 117.208 264.246 117.208C265.926 117.208 267.214 117.736 268.11 118.792C269.006 119.832 269.454 121.424 269.454 123.568C269.454 123.664 269.454 123.792 269.454 123.952C269.454 124.096 269.446 124.232 269.43 124.36H260.886C260.982 125.656 261.358 126.64 262.014 127.312C262.67 127.984 263.694 128.32 265.086 128.32C265.87 128.32 266.526 128.256 267.054 128.128C267.598 127.984 268.006 127.848 268.278 127.72L268.59 129.592C268.318 129.736 267.838 129.888 267.15 130.048C266.478 130.208 265.71 130.288 264.846 130.288C263.758 130.288 262.814 130.128 262.014 129.808C261.23 129.472 260.582 129.016 260.07 128.44C259.558 127.864 259.174 127.184 258.918 126.4C258.678 125.6 258.558 124.728 258.558 123.784ZM267.126 122.56C267.142 121.552 266.886 120.728 266.358 120.088C265.846 119.432 265.134 119.104 264.222 119.104C263.71 119.104 263.254 119.208 262.854 119.416C262.47 119.608 262.142 119.864 261.87 120.184C261.598 120.504 261.382 120.872 261.222 121.288C261.078 121.704 260.982 122.128 260.934 122.56H267.126ZM281.324 123.784C281.324 122.328 280.964 121.208 280.244 120.424C279.524 119.64 278.564 119.248 277.364 119.248C276.692 119.248 276.164 119.272 275.78 119.32C275.412 119.368 275.116 119.424 274.892 119.488V127.36C275.164 127.584 275.556 127.8 276.068 128.008C276.58 128.216 277.14 128.32 277.748 128.32C278.388 128.32 278.932 128.208 279.38 127.984C279.844 127.744 280.22 127.424 280.508 127.024C280.796 126.608 281.004 126.128 281.132 125.584C281.26 125.024 281.324 124.424 281.324 123.784ZM283.652 123.784C283.652 124.728 283.524 125.6 283.268 126.4C283.028 127.2 282.668 127.888 282.188 128.464C281.708 129.04 281.116 129.488 280.412 129.808C279.724 130.128 278.932 130.288 278.036 130.288C277.316 130.288 276.676 130.192 276.116 130C275.572 129.808 275.164 129.624 274.892 129.448V134.44H272.66V117.904C273.188 117.776 273.844 117.64 274.628 117.496C275.428 117.336 276.348 117.256 277.388 117.256C278.348 117.256 279.212 117.408 279.98 117.712C280.748 118.016 281.404 118.448 281.948 119.008C282.492 119.568 282.908 120.256 283.196 121.072C283.5 121.872 283.652 122.776 283.652 123.784ZM286.097 123.784C286.097 122.68 286.257 121.72 286.577 120.904C286.897 120.072 287.321 119.384 287.849 118.84C288.377 118.296 288.985 117.888 289.673 117.616C290.361 117.344 291.065 117.208 291.785 117.208C293.465 117.208 294.753 117.736 295.649 118.792C296.545 119.832 296.993 121.424 296.993 123.568C296.993 123.664 296.993 123.792 296.993 123.952C296.993 124.096 296.985 124.232 296.969 124.36H288.425C288.521 125.656 288.897 126.64 289.553 127.312C290.209 127.984 291.233 128.32 292.625 128.32C293.409 128.32 294.065 128.256 294.593 128.128C295.137 127.984 295.545 127.848 295.817 127.72L296.129 129.592C295.857 129.736 295.377 129.888 294.689 130.048C294.017 130.208 293.249 130.288 292.385 130.288C291.297 130.288 290.353 130.128 289.553 129.808C288.769 129.472 288.121 129.016 287.609 128.44C287.097 127.864 286.713 127.184 286.457 126.4C286.217 125.6 286.097 124.728 286.097 123.784ZM294.665 122.56C294.681 121.552 294.425 120.728 293.897 120.088C293.385 119.432 292.673 119.104 291.761 119.104C291.249 119.104 290.793 119.208 290.393 119.416C290.009 119.608 289.681 119.864 289.409 120.184C289.137 120.504 288.921 120.872 288.761 121.288C288.617 121.704 288.521 122.128 288.473 122.56H294.665ZM303.086 117.208C303.806 117.208 304.478 117.28 305.102 117.424C305.726 117.568 306.262 117.784 306.71 118.072C307.158 118.36 307.51 118.72 307.766 119.152C308.022 119.584 308.15 120.088 308.15 120.664C308.15 121.032 308.086 121.368 307.958 121.672C307.83 121.976 307.67 122.248 307.478 122.488C307.286 122.728 307.07 122.936 306.83 123.112C306.606 123.272 306.39 123.384 306.182 123.448C306.918 123.672 307.494 124.072 307.91 124.648C308.342 125.208 308.558 125.92 308.558 126.784C308.558 127.968 308.078 128.848 307.118 129.424C306.158 130 304.854 130.288 303.206 130.288C302.198 130.288 301.326 130.208 300.59 130.048C299.87 129.888 299.358 129.736 299.054 129.592L299.438 127.696C299.694 127.792 300.15 127.928 300.806 128.104C301.478 128.264 302.278 128.344 303.206 128.344C304.214 128.344 304.982 128.192 305.51 127.888C306.038 127.568 306.302 127.096 306.302 126.472C306.302 126.024 306.198 125.664 305.99 125.392C305.798 125.104 305.55 124.888 305.246 124.744C304.942 124.6 304.614 124.504 304.262 124.456C303.91 124.408 303.582 124.384 303.278 124.384H301.19V122.608H303.206C303.494 122.608 303.79 122.592 304.094 122.56C304.414 122.512 304.702 122.424 304.958 122.296C305.23 122.168 305.454 121.992 305.63 121.768C305.806 121.528 305.894 121.216 305.894 120.832C305.894 120.528 305.814 120.272 305.654 120.064C305.51 119.84 305.31 119.656 305.054 119.512C304.798 119.368 304.494 119.264 304.142 119.2C303.806 119.12 303.454 119.08 303.086 119.08C302.798 119.08 302.486 119.104 302.15 119.152C301.814 119.2 301.486 119.264 301.166 119.344C300.846 119.408 300.558 119.48 300.302 119.56C300.046 119.64 299.862 119.712 299.75 119.776L299.342 117.856C299.47 117.808 299.67 117.744 299.942 117.664C300.214 117.584 300.518 117.512 300.854 117.448C301.206 117.384 301.574 117.328 301.958 117.28C302.342 117.232 302.718 117.208 303.086 117.208ZM322.375 125.152C322.135 125.152 321.903 125.152 321.679 125.152C321.455 125.136 321.239 125.12 321.031 125.104C320.519 125.872 320.023 126.696 319.543 127.576C319.079 128.44 318.663 129.248 318.295 130H316.039C316.231 129.536 316.455 129.064 316.711 128.584C316.967 128.088 317.223 127.608 317.479 127.144C317.751 126.68 318.023 126.24 318.295 125.824C318.567 125.408 318.823 125.032 319.063 124.696C318.615 124.536 318.247 124.344 317.959 124.12C317.671 123.88 317.439 123.616 317.263 123.328C317.087 123.04 316.959 122.736 316.879 122.416C316.815 122.08 316.783 121.744 316.783 121.408C316.783 120.704 316.911 120.088 317.167 119.56C317.439 119.032 317.807 118.6 318.271 118.264C318.735 117.912 319.279 117.648 319.903 117.472C320.543 117.296 321.239 117.208 321.991 117.208C323.047 117.208 323.943 117.256 324.679 117.352C325.415 117.448 326.031 117.56 326.527 117.688V130H324.319V125.152H322.375ZM324.319 119.176C324.143 119.144 323.847 119.112 323.431 119.08C323.031 119.048 322.567 119.032 322.039 119.032C321.127 119.032 320.391 119.224 319.831 119.608C319.271 119.976 318.991 120.568 318.991 121.384C318.991 122.184 319.279 122.736 319.855 123.04C320.431 123.344 321.175 123.496 322.087 123.496H324.319V119.176ZM334.923 123.208C335.419 123.56 335.955 124.008 336.531 124.552C337.107 125.08 337.667 125.656 338.211 126.28C338.771 126.904 339.291 127.544 339.771 128.2C340.251 128.84 340.659 129.44 340.995 130H338.355C338.003 129.456 337.587 128.904 337.107 128.344C336.643 127.768 336.155 127.216 335.643 126.688C335.131 126.16 334.611 125.672 334.083 125.224C333.555 124.776 333.059 124.4 332.595 124.096V130H330.363V117.52H332.595V122.872C332.979 122.504 333.419 122.08 333.915 121.6C334.411 121.104 334.907 120.608 335.403 120.112C335.915 119.6 336.387 119.12 336.819 118.672C337.251 118.208 337.603 117.824 337.875 117.52H340.467C340.115 117.904 339.699 118.344 339.219 118.84C338.755 119.32 338.267 119.816 337.755 120.328C337.259 120.84 336.763 121.352 336.267 121.864C335.771 122.36 335.323 122.808 334.923 123.208ZM353.742 117.52V130H351.582V120.496C351.102 121.104 350.574 121.816 349.998 122.632C349.422 123.448 348.846 124.296 348.27 125.176C347.694 126.04 347.142 126.896 346.614 127.744C346.086 128.592 345.63 129.344 345.246 130H343.254V117.52H345.414V126.496C345.83 125.808 346.302 125.056 346.83 124.24C347.358 123.408 347.902 122.592 348.462 121.792C349.038 120.976 349.606 120.2 350.166 119.464C350.742 118.712 351.278 118.064 351.774 117.52H353.742ZM368.062 117.52V130H365.902V120.496C365.422 121.104 364.894 121.816 364.318 122.632C363.742 123.448 363.166 124.296 362.59 125.176C362.014 126.04 361.462 126.896 360.934 127.744C360.406 128.592 359.95 129.344 359.566 130H357.574V117.52H359.734V126.496C360.15 125.808 360.622 125.056 361.15 124.24C361.678 123.408 362.222 122.592 362.782 121.792C363.358 120.976 363.926 120.2 364.486 119.464C365.062 118.712 365.598 118.064 366.094 117.52H368.062ZM362.83 115.504C361.822 115.504 360.998 115.248 360.358 114.736C359.734 114.224 359.358 113.512 359.23 112.6L360.934 112.144C361.062 112.656 361.278 113.072 361.582 113.392C361.886 113.712 362.302 113.872 362.83 113.872C363.358 113.872 363.774 113.712 364.078 113.392C364.382 113.072 364.598 112.656 364.726 112.144L366.406 112.6C366.278 113.512 365.902 114.224 365.278 114.736C364.654 115.248 363.838 115.504 362.83 115.504ZM377.319 130.288C376.311 130.288 375.423 130.128 374.655 129.808C373.903 129.488 373.263 129.04 372.735 128.464C372.223 127.888 371.839 127.208 371.583 126.424C371.327 125.624 371.199 124.744 371.199 123.784C371.199 122.824 371.335 121.944 371.607 121.144C371.895 120.344 372.295 119.656 372.807 119.08C373.319 118.488 373.943 118.032 374.679 117.712C375.431 117.376 376.263 117.208 377.175 117.208C377.735 117.208 378.295 117.256 378.855 117.352C379.415 117.448 379.951 117.6 380.463 117.808L379.959 119.704C379.623 119.544 379.231 119.416 378.783 119.32C378.351 119.224 377.887 119.176 377.391 119.176C376.143 119.176 375.183 119.568 374.511 120.352C373.855 121.136 373.527 122.28 373.527 123.784C373.527 124.456 373.599 125.072 373.743 125.632C373.903 126.192 374.143 126.672 374.463 127.072C374.799 127.472 375.223 127.784 375.735 128.008C376.247 128.216 376.871 128.32 377.607 128.32C378.199 128.32 378.735 128.264 379.215 128.152C379.695 128.04 380.071 127.92 380.343 127.792L380.655 129.664C380.527 129.744 380.343 129.824 380.103 129.904C379.863 129.968 379.591 130.024 379.287 130.072C378.983 130.136 378.655 130.184 378.303 130.216C377.967 130.264 377.639 130.288 377.319 130.288ZM387.779 128.44C388.723 128.44 389.467 128.256 390.011 127.888C390.555 127.52 390.827 126.928 390.827 126.112C390.827 125.712 390.747 125.368 390.587 125.08C390.427 124.792 390.203 124.56 389.915 124.384C389.643 124.192 389.323 124.056 388.955 123.976C388.587 123.88 388.195 123.832 387.779 123.832C387.347 123.832 386.899 123.848 386.435 123.88C385.987 123.896 385.603 123.944 385.283 124.024V128.32C385.379 128.336 385.523 128.352 385.715 128.368C385.907 128.384 386.115 128.4 386.339 128.416C386.579 128.416 386.819 128.424 387.059 128.44C387.315 128.44 387.555 128.44 387.779 128.44ZM383.051 129.736V117.52H385.283V122.296C385.411 122.264 385.579 122.232 385.787 122.2C386.011 122.168 386.243 122.136 386.483 122.104C386.739 122.072 387.003 122.048 387.275 122.032C387.547 122.016 387.803 122.008 388.043 122.008C388.731 122.008 389.379 122.088 389.987 122.248C390.595 122.392 391.123 122.632 391.571 122.968C392.035 123.288 392.403 123.712 392.675 124.24C392.947 124.752 393.083 125.368 393.083 126.088C393.083 126.84 392.955 127.48 392.699 128.008C392.443 128.536 392.075 128.968 391.595 129.304C391.115 129.64 390.539 129.88 389.867 130.024C389.211 130.184 388.475 130.264 387.659 130.264C386.859 130.264 386.075 130.216 385.307 130.12C384.539 130.04 383.787 129.912 383.051 129.736ZM138.807 145.52V149.192C138.807 150.136 139.047 150.8 139.527 151.184C140.007 151.552 140.663 151.736 141.495 151.736C142.103 151.736 142.607 151.704 143.007 151.64C143.423 151.576 143.791 151.504 144.111 151.424V145.52H146.343V158H144.111V153.152C143.983 153.184 143.815 153.224 143.607 153.272C143.399 153.32 143.159 153.368 142.887 153.416C142.631 153.448 142.359 153.48 142.071 153.512C141.783 153.544 141.503 153.56 141.231 153.56C140.543 153.56 139.911 153.488 139.335 153.344C138.775 153.2 138.287 152.96 137.871 152.624C137.471 152.288 137.151 151.848 136.911 151.304C136.687 150.744 136.575 150.048 136.575 149.216V145.52H138.807ZM154.412 156.392C154.94 156.392 155.404 156.384 155.804 156.368C156.22 156.336 156.564 156.288 156.836 156.224V152.504C156.676 152.424 156.412 152.36 156.044 152.312C155.692 152.248 155.26 152.216 154.748 152.216C154.412 152.216 154.052 152.24 153.668 152.288C153.3 152.336 152.956 152.44 152.636 152.6C152.332 152.744 152.076 152.952 151.868 153.224C151.66 153.48 151.556 153.824 151.556 154.256C151.556 155.056 151.812 155.616 152.324 155.936C152.836 156.24 153.532 156.392 154.412 156.392ZM154.22 145.208C155.116 145.208 155.868 145.328 156.476 145.568C157.1 145.792 157.596 146.12 157.964 146.552C158.348 146.968 158.62 147.472 158.78 148.064C158.94 148.64 159.02 149.28 159.02 149.984V157.784C158.828 157.816 158.556 157.864 158.204 157.928C157.868 157.976 157.484 158.024 157.052 158.072C156.62 158.12 156.148 158.16 155.636 158.192C155.14 158.24 154.644 158.264 154.148 158.264C153.444 158.264 152.796 158.192 152.204 158.048C151.612 157.904 151.1 157.68 150.668 157.376C150.236 157.056 149.9 156.64 149.66 156.128C149.42 155.616 149.3 155 149.3 154.28C149.3 153.592 149.436 153 149.708 152.504C149.996 152.008 150.38 151.608 150.86 151.304C151.34 151 151.9 150.776 152.54 150.632C153.18 150.488 153.852 150.416 154.556 150.416C154.78 150.416 155.012 150.432 155.252 150.464C155.492 150.48 155.716 150.512 155.924 150.56C156.148 150.592 156.34 150.624 156.5 150.656C156.66 150.688 156.772 150.712 156.836 150.728V150.104C156.836 149.736 156.796 149.376 156.716 149.024C156.636 148.656 156.492 148.336 156.284 148.064C156.076 147.776 155.788 147.552 155.42 147.392C155.068 147.216 154.604 147.128 154.028 147.128C153.292 147.128 152.644 147.184 152.084 147.296C151.54 147.392 151.132 147.496 150.86 147.608L150.596 145.76C150.884 145.632 151.364 145.512 152.036 145.4C152.708 145.272 153.436 145.208 154.22 145.208ZM168.151 158.288C167.143 158.288 166.255 158.128 165.487 157.808C164.735 157.488 164.095 157.04 163.567 156.464C163.055 155.888 162.671 155.208 162.415 154.424C162.159 153.624 162.031 152.744 162.031 151.784C162.031 150.824 162.167 149.944 162.439 149.144C162.727 148.344 163.127 147.656 163.639 147.08C164.151 146.488 164.775 146.032 165.511 145.712C166.263 145.376 167.095 145.208 168.007 145.208C168.567 145.208 169.127 145.256 169.687 145.352C170.247 145.448 170.783 145.6 171.295 145.808L170.791 147.704C170.455 147.544 170.063 147.416 169.615 147.32C169.183 147.224 168.719 147.176 168.223 147.176C166.975 147.176 166.015 147.568 165.343 148.352C164.687 149.136 164.359 150.28 164.359 151.784C164.359 152.456 164.431 153.072 164.575 153.632C164.735 154.192 164.975 154.672 165.295 155.072C165.631 155.472 166.055 155.784 166.567 156.008C167.079 156.216 167.703 156.32 168.439 156.32C169.031 156.32 169.567 156.264 170.047 156.152C170.527 156.04 170.903 155.92 171.175 155.792L171.487 157.664C171.359 157.744 171.175 157.824 170.935 157.904C170.695 157.968 170.423 158.024 170.119 158.072C169.815 158.136 169.487 158.184 169.135 158.216C168.799 158.264 168.471 158.288 168.151 158.288ZM182.606 145.208C183.326 145.208 183.998 145.28 184.622 145.424C185.246 145.568 185.782 145.784 186.23 146.072C186.678 146.36 187.03 146.72 187.286 147.152C187.542 147.584 187.67 148.088 187.67 148.664C187.67 149.032 187.606 149.368 187.478 149.672C187.35 149.976 187.19 150.248 186.998 150.488C186.806 150.728 186.59 150.936 186.35 151.112C186.126 151.272 185.91 151.384 185.702 151.448C186.438 151.672 187.014 152.072 187.43 152.648C187.862 153.208 188.078 153.92 188.078 154.784C188.078 155.968 187.598 156.848 186.638 157.424C185.678 158 184.374 158.288 182.726 158.288C181.718 158.288 180.846 158.208 180.11 158.048C179.39 157.888 178.878 157.736 178.574 157.592L178.958 155.696C179.214 155.792 179.67 155.928 180.326 156.104C180.998 156.264 181.798 156.344 182.726 156.344C183.734 156.344 184.502 156.192 185.03 155.888C185.558 155.568 185.822 155.096 185.822 154.472C185.822 154.024 185.718 153.664 185.51 153.392C185.318 153.104 185.07 152.888 184.766 152.744C184.462 152.6 184.134 152.504 183.782 152.456C183.43 152.408 183.102 152.384 182.798 152.384H180.71V150.608H182.726C183.014 150.608 183.31 150.592 183.614 150.56C183.934 150.512 184.222 150.424 184.478 150.296C184.75 150.168 184.974 149.992 185.15 149.768C185.326 149.528 185.414 149.216 185.414 148.832C185.414 148.528 185.334 148.272 185.174 148.064C185.03 147.84 184.83 147.656 184.574 147.512C184.318 147.368 184.014 147.264 183.662 147.2C183.326 147.12 182.974 147.08 182.606 147.08C182.318 147.08 182.006 147.104 181.67 147.152C181.334 147.2 181.006 147.264 180.686 147.344C180.366 147.408 180.078 147.48 179.822 147.56C179.566 147.64 179.382 147.712 179.27 147.776L178.862 145.856C178.99 145.808 179.19 145.744 179.462 145.664C179.734 145.584 180.038 145.512 180.374 145.448C180.726 145.384 181.094 145.328 181.478 145.28C181.862 145.232 182.238 145.208 182.606 145.208ZM195.404 156.392C195.932 156.392 196.396 156.384 196.796 156.368C197.212 156.336 197.556 156.288 197.828 156.224V152.504C197.668 152.424 197.404 152.36 197.036 152.312C196.684 152.248 196.252 152.216 195.74 152.216C195.404 152.216 195.044 152.24 194.66 152.288C194.292 152.336 193.948 152.44 193.628 152.6C193.324 152.744 193.068 152.952 192.86 153.224C192.652 153.48 192.548 153.824 192.548 154.256C192.548 155.056 192.804 155.616 193.316 155.936C193.828 156.24 194.524 156.392 195.404 156.392ZM195.212 145.208C196.108 145.208 196.86 145.328 197.468 145.568C198.092 145.792 198.588 146.12 198.956 146.552C199.34 146.968 199.612 147.472 199.772 148.064C199.932 148.64 200.012 149.28 200.012 149.984V157.784C199.82 157.816 199.548 157.864 199.196 157.928C198.86 157.976 198.476 158.024 198.044 158.072C197.612 158.12 197.14 158.16 196.628 158.192C196.132 158.24 195.636 158.264 195.14 158.264C194.436 158.264 193.788 158.192 193.196 158.048C192.604 157.904 192.092 157.68 191.66 157.376C191.228 157.056 190.892 156.64 190.652 156.128C190.412 155.616 190.292 155 190.292 154.28C190.292 153.592 190.428 153 190.7 152.504C190.988 152.008 191.372 151.608 191.852 151.304C192.332 151 192.892 150.776 193.532 150.632C194.172 150.488 194.844 150.416 195.548 150.416C195.772 150.416 196.004 150.432 196.244 150.464C196.484 150.48 196.708 150.512 196.916 150.56C197.14 150.592 197.332 150.624 197.492 150.656C197.652 150.688 197.764 150.712 197.828 150.728V150.104C197.828 149.736 197.788 149.376 197.708 149.024C197.628 148.656 197.484 148.336 197.276 148.064C197.068 147.776 196.78 147.552 196.412 147.392C196.06 147.216 195.596 147.128 195.02 147.128C194.284 147.128 193.636 147.184 193.076 147.296C192.532 147.392 192.124 147.496 191.852 147.608L191.588 145.76C191.876 145.632 192.356 145.512 193.028 145.4C193.7 145.272 194.428 145.208 195.212 145.208ZM206.095 148.808C205.935 150.392 205.815 151.976 205.735 153.56C205.655 155.128 205.591 156.608 205.543 158H203.407C203.439 157.024 203.487 156.008 203.551 154.952C203.615 153.88 203.687 152.808 203.767 151.736C203.847 150.648 203.935 149.584 204.031 148.544C204.127 147.488 204.231 146.48 204.343 145.52H206.383C206.895 146.352 207.495 147.496 208.183 148.952C208.871 150.392 209.663 152.056 210.559 153.944C211.455 152.056 212.247 150.392 212.935 148.952C213.623 147.496 214.223 146.352 214.735 145.52H216.799C216.911 146.48 217.015 147.488 217.111 148.544C217.207 149.584 217.295 150.648 217.375 151.736C217.455 152.808 217.527 153.88 217.591 154.952C217.655 156.008 217.703 157.024 217.735 158H215.527C215.479 156.608 215.415 155.128 215.335 153.56C215.255 151.976 215.135 150.392 214.975 148.808C214.719 149.304 214.423 149.904 214.087 150.608C213.751 151.296 213.415 152 213.079 152.72C212.759 153.44 212.455 154.128 212.167 154.784C211.879 155.44 211.655 155.96 211.495 156.344H209.623C209.447 155.944 209.207 155.416 208.903 154.76C208.615 154.104 208.303 153.416 207.967 152.696C207.647 151.96 207.319 151.248 206.983 150.56C206.647 149.856 206.351 149.272 206.095 148.808ZM232.29 151.76C232.29 152.752 232.146 153.648 231.858 154.448C231.57 155.248 231.162 155.936 230.634 156.512C230.122 157.088 229.506 157.536 228.786 157.856C228.066 158.16 227.282 158.312 226.434 158.312C225.586 158.312 224.802 158.16 224.082 157.856C223.362 157.536 222.738 157.088 222.21 156.512C221.698 155.936 221.298 155.248 221.01 154.448C220.722 153.648 220.578 152.752 220.578 151.76C220.578 150.784 220.722 149.896 221.01 149.096C221.298 148.28 221.698 147.584 222.21 147.008C222.738 146.432 223.362 145.992 224.082 145.688C224.802 145.368 225.586 145.208 226.434 145.208C227.282 145.208 228.066 145.368 228.786 145.688C229.506 145.992 230.122 146.432 230.634 147.008C231.162 147.584 231.57 148.28 231.858 149.096C232.146 149.896 232.29 150.784 232.29 151.76ZM229.962 151.76C229.962 150.352 229.642 149.24 229.002 148.424C228.378 147.592 227.522 147.176 226.434 147.176C225.346 147.176 224.482 147.592 223.842 148.424C223.218 149.24 222.906 150.352 222.906 151.76C222.906 153.168 223.218 154.288 223.842 155.12C224.482 155.936 225.346 156.344 226.434 156.344C227.522 156.344 228.378 155.936 229.002 155.12C229.642 154.288 229.962 153.168 229.962 151.76ZM237.614 156.32C237.71 156.336 237.846 156.352 238.022 156.368C238.198 156.384 238.398 156.4 238.622 156.416C238.846 156.416 239.078 156.424 239.318 156.44C239.574 156.44 239.814 156.44 240.038 156.44C240.502 156.44 240.942 156.408 241.358 156.344C241.79 156.28 242.158 156.168 242.462 156.008C242.782 155.848 243.03 155.64 243.206 155.384C243.398 155.112 243.494 154.768 243.494 154.352C243.494 153.952 243.406 153.624 243.23 153.368C243.07 153.096 242.846 152.88 242.558 152.72C242.27 152.56 241.926 152.448 241.526 152.384C241.142 152.32 240.726 152.288 240.278 152.288H237.614V156.32ZM239.99 150.632C240.422 150.632 240.814 150.608 241.166 150.56C241.534 150.496 241.846 150.392 242.102 150.248C242.374 150.104 242.582 149.912 242.726 149.672C242.886 149.432 242.966 149.128 242.966 148.76C242.966 148.376 242.87 148.072 242.678 147.848C242.486 147.624 242.23 147.456 241.91 147.344C241.606 147.216 241.254 147.136 240.854 147.104C240.47 147.056 240.078 147.032 239.678 147.032C239.31 147.032 238.934 147.04 238.55 147.056C238.182 147.072 237.87 147.088 237.614 147.104V150.632H239.99ZM239.942 158.216C238.998 158.216 238.126 158.168 237.326 158.072C236.526 157.992 235.894 157.896 235.43 157.784V145.64C235.894 145.528 236.526 145.432 237.326 145.352C238.126 145.256 238.998 145.208 239.942 145.208C240.598 145.208 241.238 145.264 241.862 145.376C242.486 145.488 243.038 145.68 243.518 145.952C243.998 146.208 244.382 146.568 244.67 147.032C244.974 147.48 245.126 148.04 245.126 148.712C245.126 149.32 244.974 149.84 244.67 150.272C244.366 150.704 243.958 151.04 243.446 151.28C244.134 151.52 244.678 151.88 245.078 152.36C245.494 152.824 245.702 153.48 245.702 154.328C245.702 155.08 245.55 155.704 245.246 156.2C244.958 156.696 244.55 157.096 244.022 157.4C243.51 157.704 242.902 157.912 242.198 158.024C241.494 158.152 240.742 158.216 239.942 158.216ZM252.922 147.392C252.922 147.92 252.906 148.488 252.874 149.096C252.858 149.688 252.818 150.288 252.754 150.896C252.69 151.488 252.602 152.08 252.49 152.672C252.378 153.248 252.234 153.792 252.058 154.304C251.882 154.816 251.658 155.296 251.386 155.744C251.13 156.192 250.81 156.592 250.426 156.944C250.042 157.28 249.594 157.568 249.082 157.808C248.57 158.032 247.97 158.176 247.282 158.24L246.97 156.368C247.754 156.208 248.37 155.912 248.818 155.48C249.282 155.048 249.65 154.52 249.922 153.896C250.162 153.352 250.338 152.736 250.45 152.048C250.562 151.36 250.642 150.648 250.69 149.912C250.738 149.16 250.762 148.408 250.762 147.656C250.778 146.904 250.786 146.192 250.786 145.52H259.09V158H256.858V147.392H252.922ZM265.154 150.68H267.89C267.986 149.848 268.194 149.096 268.514 148.424C268.85 147.752 269.266 147.176 269.762 146.696C270.258 146.216 270.826 145.848 271.466 145.592C272.106 145.336 272.794 145.208 273.53 145.208C274.346 145.208 275.098 145.368 275.786 145.688C276.49 145.992 277.098 146.432 277.61 147.008C278.122 147.584 278.522 148.28 278.81 149.096C279.098 149.896 279.242 150.784 279.242 151.76C279.242 152.752 279.098 153.648 278.81 154.448C278.522 155.248 278.122 155.936 277.61 156.512C277.098 157.088 276.49 157.536 275.786 157.856C275.098 158.16 274.346 158.312 273.53 158.312C272.762 158.312 272.042 158.176 271.37 157.904C270.714 157.616 270.138 157.224 269.642 156.728C269.146 156.216 268.738 155.6 268.418 154.88C268.114 154.16 267.93 153.36 267.866 152.48H265.154V158H262.922V145.52H265.154V150.68ZM276.938 151.76C276.938 150.352 276.626 149.24 276.002 148.424C275.394 147.592 274.57 147.176 273.53 147.176C272.49 147.176 271.658 147.592 271.034 148.424C270.426 149.24 270.122 150.352 270.122 151.76C270.122 153.168 270.426 154.288 271.034 155.12C271.658 155.936 272.49 156.344 273.53 156.344C274.57 156.344 275.394 155.936 276.002 155.12C276.626 154.288 276.938 153.168 276.938 151.76ZM287.93 158V145.52H290.162V156.152H294.77V145.52H297.002V156.152H301.61V145.52H303.842V156.152H305.522V161.48H303.41V158H287.93ZM307.249 151.784C307.249 150.68 307.409 149.72 307.729 148.904C308.049 148.072 308.473 147.384 309.001 146.84C309.529 146.296 310.137 145.888 310.825 145.616C311.513 145.344 312.217 145.208 312.937 145.208C314.617 145.208 315.905 145.736 316.801 146.792C317.697 147.832 318.145 149.424 318.145 151.568C318.145 151.664 318.145 151.792 318.145 151.952C318.145 152.096 318.137 152.232 318.121 152.36H309.577C309.673 153.656 310.049 154.64 310.705 155.312C311.361 155.984 312.385 156.32 313.777 156.32C314.561 156.32 315.217 156.256 315.745 156.128C316.289 155.984 316.697 155.848 316.969 155.72L317.281 157.592C317.009 157.736 316.529 157.888 315.841 158.048C315.169 158.208 314.401 158.288 313.537 158.288C312.449 158.288 311.505 158.128 310.705 157.808C309.921 157.472 309.273 157.016 308.761 156.44C308.249 155.864 307.865 155.184 307.609 154.4C307.369 153.6 307.249 152.728 307.249 151.784ZM315.817 150.56C315.833 149.552 315.577 148.728 315.049 148.088C314.537 147.432 313.825 147.104 312.913 147.104C312.401 147.104 311.945 147.208 311.545 147.416C311.161 147.608 310.833 147.864 310.561 148.184C310.289 148.504 310.073 148.872 309.913 149.288C309.769 149.704 309.673 150.128 309.625 150.56H315.817ZM322.424 150.824C322.424 148.776 322.128 146.88 321.536 145.136C320.944 143.392 320.072 141.776 318.92 140.288L320.504 139.208C321.752 140.728 322.752 142.48 323.504 144.464C324.272 146.432 324.656 148.552 324.656 150.824C324.656 153.096 324.272 155.224 323.504 157.208C322.752 159.176 321.752 160.92 320.504 162.44L318.92 161.36C320.072 159.872 320.944 158.256 321.536 156.512C322.128 154.768 322.424 152.872 322.424 150.824Z" fill="#707070"/>
<defs>
<filter id="filter0_d_89_181" x="0.00195312" y="0" width="462" height="252" filterUnits="userSpaceOnUse" color-interpolation-filters="sRGB">
<feFlood flood-opacity="0" result="BackgroundImageFix"/>
<feColorMatrix in="SourceAlpha" type="matrix" values="0 0 0 0 0 0 0 0 0 0 0 0 0 0 0 0 0 0 127 0" result="hardAlpha"/>
<feOffset dy="5"/>
<feGaussianBlur stdDeviation="10"/>
<feComposite in2="hardAlpha" operator="out"/>
<feColorMatrix type="matrix" values="0 0 0 0 0 0 0 0 0 0 0 0 0 0 0 0 0 0 0.1 0"/>
<feBlend mode="normal" in2="BackgroundImageFix" result="effect1_dropShadow_89_181"/>
<feBlend mode="normal" in="SourceGraphic" in2="effect1_dropShadow_89_181" result="shape"/>
</filter>
</defs>
</svg>
