<svg width="462" height="252" viewBox="0 0 462 252" fill="none" xmlns="http://www.w3.org/2000/svg">
<g filter="url(#filter0_d_92_185)">
<rect x="20" y="15" width="422" height="212" rx="28" fill="white"/>
</g>
<path d="M149.813 115.24C149.205 115.24 148.621 115.288 148.061 115.384C147.517 115.48 147.029 115.648 146.597 115.888C146.165 116.128 145.821 116.456 145.565 116.872C145.309 117.288 145.181 117.808 145.181 118.432C145.181 119.616 145.557 120.44 146.309 120.904C147.077 121.352 148.221 121.576 149.741 121.576H152.141V115.312C151.965 115.312 151.757 115.304 151.517 115.288C151.309 115.272 151.061 115.264 150.773 115.264C150.501 115.248 150.181 115.24 149.813 115.24ZM150.005 113.2C150.341 113.2 150.701 113.208 151.085 113.224C151.469 113.24 151.853 113.264 152.237 113.296C152.637 113.328 153.029 113.368 153.413 113.416C153.797 113.464 154.149 113.528 154.469 113.608V130H152.141V123.496H150.149C149.925 123.496 149.685 123.496 149.429 123.496C149.189 123.48 148.861 123.448 148.445 123.4C148.157 123.784 147.845 124.232 147.509 124.744C147.173 125.256 146.837 125.8 146.501 126.376C146.165 126.952 145.829 127.552 145.493 128.176C145.173 128.8 144.877 129.408 144.605 130H142.157C142.413 129.376 142.717 128.728 143.069 128.056C143.421 127.384 143.781 126.744 144.149 126.136C144.533 125.528 144.893 124.968 145.229 124.456C145.581 123.928 145.885 123.496 146.141 123.16C145.773 123.048 145.389 122.888 144.989 122.68C144.589 122.472 144.221 122.184 143.885 121.816C143.549 121.448 143.269 120.992 143.045 120.448C142.837 119.888 142.733 119.224 142.733 118.456C142.733 117.592 142.901 116.832 143.237 116.176C143.573 115.52 144.053 114.976 144.677 114.544C145.317 114.096 146.085 113.76 146.981 113.536C147.877 113.312 148.885 113.2 150.005 113.2ZM163.007 123.208C163.503 123.56 164.039 124.008 164.615 124.552C165.191 125.08 165.751 125.656 166.295 126.28C166.855 126.904 167.375 127.544 167.855 128.2C168.335 128.84 168.743 129.44 169.079 130H166.439C166.087 129.456 165.671 128.904 165.191 128.344C164.727 127.768 164.239 127.216 163.727 126.688C163.215 126.16 162.695 125.672 162.167 125.224C161.639 124.776 161.143 124.4 160.679 124.096V130H158.447V117.52H160.679V122.872C161.063 122.504 161.503 122.08 161.999 121.6C162.495 121.104 162.991 120.608 163.487 120.112C163.999 119.6 164.471 119.12 164.903 118.672C165.335 118.208 165.687 117.824 165.959 117.52H168.551C168.199 117.904 167.783 118.344 167.303 118.84C166.839 119.32 166.351 119.816 165.839 120.328C165.343 120.84 164.847 121.352 164.351 121.864C163.855 122.36 163.407 122.808 163.007 123.208ZM173.57 130H171.338V117.52H173.57V130ZM172.442 115.264C172.042 115.264 171.698 115.136 171.41 114.88C171.138 114.608 171.002 114.248 171.002 113.8C171.002 113.352 171.138 113 171.41 112.744C171.698 112.472 172.042 112.336 172.442 112.336C172.842 112.336 173.178 112.472 173.45 112.744C173.738 113 173.882 113.352 173.882 113.8C173.882 114.248 173.738 114.608 173.45 114.88C173.178 115.136 172.842 115.264 172.442 115.264ZM182.832 130.288C181.824 130.288 180.936 130.128 180.168 129.808C179.416 129.488 178.776 129.04 178.248 128.464C177.736 127.888 177.352 127.208 177.096 126.424C176.84 125.624 176.712 124.744 176.712 123.784C176.712 122.824 176.848 121.944 177.12 121.144C177.408 120.344 177.808 119.656 178.32 119.08C178.832 118.488 179.456 118.032 180.192 117.712C180.944 117.376 181.776 117.208 182.688 117.208C183.248 117.208 183.808 117.256 184.368 117.352C184.928 117.448 185.464 117.6 185.976 117.808L185.472 119.704C185.136 119.544 184.744 119.416 184.296 119.32C183.864 119.224 183.4 119.176 182.904 119.176C181.656 119.176 180.696 119.568 180.024 120.352C179.368 121.136 179.04 122.28 179.04 123.784C179.04 124.456 179.112 125.072 179.256 125.632C179.416 126.192 179.656 126.672 179.976 127.072C180.312 127.472 180.736 127.784 181.248 128.008C181.76 128.216 182.384 128.32 183.12 128.32C183.712 128.32 184.248 128.264 184.728 128.152C185.208 128.04 185.584 127.92 185.856 127.792L186.168 129.664C186.04 129.744 185.856 129.824 185.616 129.904C185.376 129.968 185.104 130.024 184.8 130.072C184.496 130.136 184.168 130.184 183.816 130.216C183.48 130.264 183.152 130.288 182.832 130.288ZM197.724 117.52V119.392H193.668V130H191.436V119.392H187.38V117.52H197.724ZM204.753 128.44C205.697 128.44 206.441 128.256 206.985 127.888C207.529 127.52 207.801 126.928 207.801 126.112C207.801 125.712 207.721 125.368 207.561 125.08C207.401 124.792 207.177 124.56 206.889 124.384C206.617 124.192 206.297 124.056 205.929 123.976C205.561 123.88 205.169 123.832 204.753 123.832C204.321 123.832 203.873 123.848 203.409 123.88C202.961 123.896 202.577 123.944 202.257 124.024V128.32C202.353 128.336 202.497 128.352 202.689 128.368C202.881 128.384 203.089 128.4 203.313 128.416C203.553 128.416 203.793 128.424 204.033 128.44C204.289 128.44 204.529 128.44 204.753 128.44ZM200.025 129.736V117.52H202.257V122.296C202.385 122.264 202.553 122.232 202.761 122.2C202.985 122.168 203.217 122.136 203.457 122.104C203.713 122.072 203.977 122.048 204.249 122.032C204.521 122.016 204.777 122.008 205.017 122.008C205.705 122.008 206.353 122.088 206.961 122.248C207.569 122.392 208.097 122.632 208.545 122.968C209.009 123.288 209.377 123.712 209.649 124.24C209.921 124.752 210.057 125.368 210.057 126.088C210.057 126.84 209.929 127.48 209.673 128.008C209.417 128.536 209.049 128.968 208.569 129.304C208.089 129.64 207.513 129.88 206.841 130.024C206.185 130.184 205.449 130.264 204.633 130.264C203.833 130.264 203.049 130.216 202.281 130.12C201.513 130.04 200.761 129.912 200.025 129.736ZM216.964 121.768H222.892V123.856H216.964V121.768ZM236.41 130.288C235.402 130.288 234.514 130.128 233.746 129.808C232.994 129.488 232.354 129.04 231.826 128.464C231.314 127.888 230.93 127.208 230.674 126.424C230.418 125.624 230.29 124.744 230.29 123.784C230.29 122.824 230.426 121.944 230.698 121.144C230.986 120.344 231.386 119.656 231.898 119.08C232.41 118.488 233.034 118.032 233.77 117.712C234.522 117.376 235.354 117.208 236.266 117.208C236.826 117.208 237.386 117.256 237.946 117.352C238.506 117.448 239.042 117.6 239.554 117.808L239.05 119.704C238.714 119.544 238.322 119.416 237.874 119.32C237.442 119.224 236.978 119.176 236.482 119.176C235.234 119.176 234.274 119.568 233.602 120.352C232.946 121.136 232.618 122.28 232.618 123.784C232.618 124.456 232.69 125.072 232.834 125.632C232.994 126.192 233.234 126.672 233.554 127.072C233.89 127.472 234.314 127.784 234.826 128.008C235.338 128.216 235.962 128.32 236.698 128.32C237.29 128.32 237.826 128.264 238.306 128.152C238.786 128.04 239.162 127.92 239.434 127.792L239.746 129.664C239.618 129.744 239.434 129.824 239.194 129.904C238.954 129.968 238.682 130.024 238.378 130.072C238.074 130.136 237.746 130.184 237.394 130.216C237.058 130.264 236.73 130.288 236.41 130.288ZM240.936 132.328C241.112 132.408 241.336 132.48 241.608 132.544C241.896 132.624 242.176 132.664 242.448 132.664C243.328 132.664 244.016 132.464 244.512 132.064C245.008 131.68 245.456 131.048 245.856 130.168C244.848 128.248 243.904 126.216 243.024 124.072C242.16 121.912 241.44 119.728 240.864 117.52H243.264C243.44 118.24 243.648 119.016 243.888 119.848C244.144 120.68 244.424 121.536 244.728 122.416C245.032 123.296 245.36 124.176 245.712 125.056C246.064 125.936 246.432 126.784 246.816 127.6C247.424 125.92 247.952 124.256 248.4 122.608C248.848 120.96 249.272 119.264 249.672 117.52H251.976C251.4 119.872 250.76 122.136 250.056 124.312C249.352 126.472 248.592 128.496 247.776 130.384C247.456 131.104 247.12 131.72 246.768 132.232C246.432 132.76 246.056 133.192 245.64 133.528C245.224 133.864 244.752 134.112 244.224 134.272C243.712 134.432 243.128 134.512 242.472 134.512C242.296 134.512 242.112 134.496 241.92 134.464C241.728 134.448 241.536 134.416 241.344 134.368C241.168 134.336 241 134.296 240.84 134.248C240.696 134.2 240.592 134.16 240.528 134.128L240.936 132.328ZM264.362 130H262.13V119.392H256.562V130H254.33V117.52H264.362V130ZM267.509 123.784C267.509 122.68 267.669 121.72 267.989 120.904C268.309 120.072 268.733 119.384 269.261 118.84C269.789 118.296 270.397 117.888 271.085 117.616C271.773 117.344 272.477 117.208 273.197 117.208C274.877 117.208 276.165 117.736 277.061 118.792C277.957 119.832 278.405 121.424 278.405 123.568C278.405 123.664 278.405 123.792 278.405 123.952C278.405 124.096 278.397 124.232 278.381 124.36H269.837C269.933 125.656 270.309 126.64 270.965 127.312C271.621 127.984 272.645 128.32 274.037 128.32C274.821 128.32 275.477 128.256 276.005 128.128C276.549 127.984 276.957 127.848 277.229 127.72L277.541 129.592C277.269 129.736 276.789 129.888 276.101 130.048C275.429 130.208 274.661 130.288 273.797 130.288C272.709 130.288 271.765 130.128 270.965 129.808C270.181 129.472 269.533 129.016 269.021 128.44C268.509 127.864 268.125 127.184 267.869 126.4C267.629 125.6 267.509 124.728 267.509 123.784ZM276.077 122.56C276.093 121.552 275.837 120.728 275.309 120.088C274.797 119.432 274.085 119.104 273.173 119.104C272.661 119.104 272.205 119.208 271.805 119.416C271.421 119.608 271.093 119.864 270.821 120.184C270.549 120.504 270.333 120.872 270.173 121.288C270.029 121.704 269.933 122.128 269.885 122.56H276.077ZM290.275 123.784C290.275 122.328 289.915 121.208 289.195 120.424C288.475 119.64 287.515 119.248 286.315 119.248C285.643 119.248 285.115 119.272 284.731 119.32C284.363 119.368 284.067 119.424 283.843 119.488V127.36C284.115 127.584 284.507 127.8 285.019 128.008C285.531 128.216 286.091 128.32 286.699 128.32C287.339 128.32 287.883 128.208 288.331 127.984C288.795 127.744 289.171 127.424 289.459 127.024C289.747 126.608 289.955 126.128 290.083 125.584C290.211 125.024 290.275 124.424 290.275 123.784ZM292.603 123.784C292.603 124.728 292.475 125.6 292.219 126.4C291.979 127.2 291.619 127.888 291.139 128.464C290.659 129.04 290.067 129.488 289.363 129.808C288.675 130.128 287.883 130.288 286.987 130.288C286.267 130.288 285.627 130.192 285.067 130C284.523 129.808 284.115 129.624 283.843 129.448V134.44H281.611V117.904C282.139 117.776 282.795 117.64 283.579 117.496C284.379 117.336 285.299 117.256 286.339 117.256C287.299 117.256 288.163 117.408 288.931 117.712C289.699 118.016 290.355 118.448 290.899 119.008C291.443 119.568 291.859 120.256 292.147 121.072C292.451 121.872 292.603 122.776 292.603 123.784ZM300.651 124.432H311.643V126.328H300.651V124.432ZM300.651 119.32H311.643V121.216H300.651V119.32ZM316.598 122.824C316.598 120.776 316.302 118.88 315.71 117.136C315.118 115.392 314.246 113.776 313.094 112.288L314.678 111.208C315.926 112.728 316.926 114.48 317.678 116.464C318.446 118.432 318.83 120.552 318.83 122.824C318.83 125.096 318.446 127.224 317.678 129.208C316.926 131.176 315.926 132.92 314.678 134.44L313.094 133.36C314.246 131.872 315.118 130.256 315.71 128.512C316.302 126.768 316.598 124.872 316.598 122.824Z" fill="#707070"/>
<defs>
<filter id="filter0_d_92_185" x="0" y="0" width="462" height="252" filterUnits="userSpaceOnUse" color-interpolation-filters="sRGB">
<feFlood flood-opacity="0" result="BackgroundImageFix"/>
<feColorMatrix in="SourceAlpha" type="matrix" values="0 0 0 0 0 0 0 0 0 0 0 0 0 0 0 0 0 0 127 0" result="hardAlpha"/>
<feOffset dy="5"/>
<feGaussianBlur stdDeviation="10"/>
<feComposite in2="hardAlpha" operator="out"/>
<feColorMatrix type="matrix" values="0 0 0 0 0 0 0 0 0 0 0 0 0 0 0 0 0 0 0.1 0"/>
<feBlend mode="normal" in2="BackgroundImageFix" result="effect1_dropShadow_92_185"/>
<feBlend mode="normal" in="SourceGraphic" in2="effect1_dropShadow_92_185" result="shape"/>
</filter>
</defs>
</svg>
